<svg width="800" height="600" xmlns="http://www.w3.org/2000/svg">

 <g>
  <title>Layer 1</title>
  <g stroke="null">
   <g stroke="#000000" stroke-width="0.3" stroke-opacity="0" fill-opacity="0" fill="None">
    <path stroke="null" d="m141,398.44934l518,0l0,-196.89868l-518,0l0,196.89868m158.43172,-161.03965c1.26159,33.20546 0.39771,66.94555 0.65198,100.40529c-1.3822,14.04044 4.85727,33.24784 -9.04626,41.48238c-11.86282,5.05938 -24.29286,9.89057 -35.94053,14.9141c-3.04476,0.86714 -6.58828,1.83207 -10.10573,1.95595c-1.93965,1.317 -6.42529,0.81172 -9.45374,0.97797c-24.69057,-0.74 -47.83921,-5.69507 -72.37004,-6.84582c-5.75374,-0.61938 -11.46837,-3.49789 -14.99559,-7.82379c-0.63568,-0.29339 -1.13445,-0.8867 -0.97797,-1.62996c-6.14493,-6.87515 -5.38537,-17.34925 -5.54185,-26.73128c-0.88018,-0.97471 0.40423,-2.35366 0,-3.5859c0,-4.99744 0,-9.99815 0,-14.99559c-0.54115,-5.9526 -0.54441,-12.97771 0,-18.90749c0,-5.43427 0,-10.86529 0,-16.29956c-0.80846,-18.61084 0.43357,-38.08881 0,-56.72247c-0.99753,-5.74722 0.51181,-11.48141 6.5459,-13.01357c12.34203,-6.99903 24.55692,-14.69894 37.20863,-21.46978c4.36502,-2.13524 7.87921,-5.73419 12.64194,-6.91753c29.35877,10.34044 57.96775,20.08758 87.69163,29.01322c4.36828,2.37974 10.83269,2.02115 13.69163,6.19383m44.66079,77.25991c-7.93137,0 -15.86599,0 -23.79736,0c-13.17004,-2.8622 -10.30132,-19.32802 -10.43172,-29.99119c0.09128,-7.59885 -1.40502,-16.91242 5.77004,-21.61322c6.77736,-4.47586 16.75921,-1.16053 24.87313,-2.18414c4.4563,0 8.90934,0 13.36564,0c6.15797,-1.59736 4.40088,5.40493 4.56388,9.12775c-1.02361,3.45225 2.33736,10.77727 -2.28194,11.40969c-9.02018,0 -18.03709,0 -27.05727,0c-5.90696,-1.317 -3.95427,5.91022 -4.23789,9.45374c-1.77339,5.91022 4.10423,5.60053 8.14978,5.21586c7.73577,1.10511 17.90018,-2.83612 23.55286,3.50441c7.65427,10.06661 2.76767,24.47542 4.15639,36.59251c-0.41727,7.05445 -5.80916,15.10969 -14.01762,13.36564c-9.02018,0 -18.03709,0 -27.05727,0c-3.38705,-0.71066 -10.88159,2.27868 -9.77974,-3.5859c0,-4.56388 0,-9.12775 0,-13.69163c-0.31295,-5.50273 7.01207,-2.50035 10.43172,-3.25991c4.4563,0 8.90934,0 13.36564,0c3.59568,-0.97471 10.38934,2.14828 11.73242,-1.95921c-0.72044,-3.97383 1.5452,-9.36573 -1.3007,-12.38441m72.04405,-53.78855c2.86872,2.34714 1.15401,7.01533 1.62996,10.43172c-0.44987,3.6022 1.02687,8.09762 -1.01057,11.0511c-3.69674,0.82802 -7.83683,0.12714 -11.70308,0.35859c-5.02352,-1.45392 -4.84749,4.06185 -4.56388,7.4978c0,16.19198 0,32.38071 0,48.57269c-0.69762,3.39031 1.50934,8.53445 -1.33004,10.73163c-4.12053,0.05868 -8.24106,0.00978 -12.36159,0.02608c-4.88009,0.56722 -2.8459,-5.79612 -3.25991,-8.80176c0,-16.19198 0,-32.38071 0,-48.57269c-0.73674,-2.99912 1.99181,-9.50916 -2.60793,-9.45374c-4.01947,0 -8.0422,0 -12.06167,0c-3.87278,-0.96819 -1.13445,-6.99251 -1.95595,-10.10573c0.59004,-3.60872 -1.22247,-8.78872 0.98775,-11.39991c15.90185,-0.78564 32.18837,-0.11084 48.23692,-0.33577m54.76652,0c15.12273,4.88661 8.81806,24.59604 10.10573,37.163c0,15.75515 0,31.51357 0,47.26872c1.48652,5.19956 -4.19877,4.34872 -7.4978,4.23789c-2.93718,-0.76934 -8.97454,1.94943 -9.45374,-2.28194c-0.20211,-7.80749 0.40097,-15.82687 -0.30317,-23.49419c-2.07982,-2.78722 -7.17833,-0.57374 -10.45454,-1.28115c-3.46855,0.54767 -8.16282,-1.11815 -10.85551,0.88018c-0.53137,7.72925 -0.07824,15.73233 -0.22819,23.56916c-0.0815,4.55084 -6.20035,1.91031 -9.12775,2.60793c-3.21753,-0.19559 -9.34291,1.47674 -7.82379,-3.91189c0,-23.68978 0,-47.3763 0,-71.06608c-0.07172,-6.04062 4.11727,-12.5474 10.17745,-13.61991c11.81066,-0.16626 23.64414,-0.02282 35.46132,-0.07172m74.97797,11.40969c1.01709,6.99577 1.10837,15.5237 0,22.49339c-0.95841,3.98687 -4.78555,6.87841 -5.21586,11.0837c1.48326,3.7978 5.2778,6.51656 5.54185,10.75771c0.00326,0.163 0,0.32599 0,0.32599c0.54441,6.06344 0.54441,13.19286 0,19.23348c0,0.163 0,0.32599 0,0.32599c-0.12714,6.90449 -5.59075,14.46423 -13.36564,13.03965c-13.14722,0 -26.29771,0 -39.44493,0c-5.37559,0.52159 -2.56229,-6.82952 -3.25991,-10.10573c0,-22.05982 0,-44.11639 0,-66.17621c0.53463,-3.93471 -1.21269,-9.11145 1.20617,-12.15947c12.94511,-0.53137 26.16731,-0.07824 39.21674,-0.22819c7.51736,-1.54846 14.63048,4.02925 15.32159,11.40969m26.40529,-9.12775c-0.01304,0.163 0,0.32599 0,0.32599c0.75956,20.67762 0.11084,41.99419 0.32599,62.9163c1.99181,2.83286 7.17507,0.58352 10.43172,1.30396c4.01947,0 8.0422,0 12.06167,0c4.92247,-1.50282 5.48969,3.18167 4.88987,6.84582c0,4.01947 0,8.0422 0,12.06167c0.41075,4.91921 -6.16123,2.27216 -9.12775,2.93392c-7.93137,0 -15.86599,0 -23.79736,0c-3.7652,-0.36837 -8.06502,0.74326 -11.49119,-0.57048c-0.57048,-27.58537 -0.0815,-55.5 -0.24449,-83.20925c-1.63974,-5.2615 3.37401,-5.33974 7.17181,-4.88987c3.03172,0.75956 9.15709,-1.92661 9.77974,2.28194m68.45815,65.52423c0,-4.88987 0,-9.77974 0,-14.6696c-8.36819,0 -16.73313,0 -25.10132,0c-5.50599,1.26811 -3.61198,-5.53859 -3.91189,-8.80176c0.37815,-3.1393 -1.65604,-9.70802 3.5859,-8.80176c8.47577,0 16.95154,0 25.42731,0c0,-4.13031 0,-8.25736 0,-12.38767c0.01304,-4.5215 -7.03489,-1.32352 -10.10573,-2.28194c-4.23789,0 -8.47577,0 -12.71366,0c-3.38053,-0.79868 -8.8311,1.77665 -10.73163,-1.65604c-0.05868,-4.22811 -0.00978,-8.45947 -0.02608,-12.68758c-1.10511,-4.40088 1.00731,-7.9607 5.86784,-6.51982c12.23771,0.39445 24.89269,-0.8052 36.85982,0.62916c11.03154,5.30388 7.12291,19.70291 7.80097,30.01401c0,12.49524 0,24.99374 0,37.48899c0.34229,6.95991 0.32273,14.93692 -5.94934,19.15198c-7.20767,2.95348 -15.88881,0.66176 -23.71586,1.38546c-4.13031,0 -8.25736,0 -12.38767,0c-3.44247,-0.12388 -9.89057,1.4311 -8.47577,-4.23789c0,-4.13031 0,-8.25736 0,-12.38767c-1.3333,-5.63313 4.99419,-4.13357 8.47577,-4.23789c8.36819,0 16.73313,0 25.10132,0z"/>
   </g>
   <g stroke="#20201F" stroke-width="0.3" stroke-opacity="0.94" fill-opacity="0" fill="None">
    <path stroke="null" d="m141.65198,243.60352c0.96819,-0.28687 0.96819,-3.7 2.85242,-4.64537c5.48643,-5.02352 13.93612,-1.95595 20.62546,-3.82388c28.16238,-1.23877 56.2726,-4.37806 84.4252,-4.5704c11.51075,0.99753 8.74634,14.85868 9.23533,23.36379c0.43031,2.48405 0.22167,5.28432 0.11084,7.82379c-7.54996,0.84432 -15.53022,0.97797 -23.36379,1.08555c0,0.54441 0,1.08555 0,1.62996c8.32907,-0.19559 16.66467,-0.52811 24.84705,-1.23225c0.1467,-8.27366 -0.43031,-17.00696 -0.39771,-25.49903c0.19559,-3.55982 0.51507,-8.75286 -3.93471,-9.43093c-37.50203,1.27463 -74.55745,4.43674 -111.79216,6.823c3.5696,-3.5859 9.07559,-5.53859 13.44714,-8.39427c9.58088,-4.82467 18.64996,-10.64035 27.957,-15.72582c4.73665,-2.30476 9.21903,-7.75207 14.73806,-6.26881c32.41656,12.5474 65.98062,22.40863 99.0296,32.67084c-2.85894,-4.17269 -9.32335,-3.8141 -13.69163,-6.19383c-29.72388,-8.92564 -58.33286,-18.67278 -87.69163,-29.01322c-4.76273,1.18335 -8.27692,4.78229 -12.64194,6.91753c-12.65172,6.77084 -24.86661,14.47075 -37.20863,21.46978c-6.0341,1.53216 -7.54344,7.26634 -6.5459,13.01357z"/>
   </g>
   <g stroke="#474740" stroke-width="0.3" fill-opacity="0" fill="None">
    <path stroke="null" d="m235.53744,264.46696c-0.21841,19.61489 0.43357,39.65683 -0.32599,59.00441c7.53366,1.93639 15.14229,4.3585 22.8259,5.86132c4.52802,1.54846 1.30722,8.2215 2.27542,12.06819c0,14.45119 0,28.90564 0,43.35683c0.04564,3.98687 -2.24934,7.4326 -5.21586,9.45374c11.64767,-5.02352 24.07771,-9.85471 35.94053,-14.9141c13.90352,-8.23454 7.66405,-27.44194 9.04626,-41.48238c-0.25427,-33.45974 0.6096,-67.19982 -0.65198,-100.40529c-33.04899,-10.2622 -66.61304,-20.12344 -99.0296,-32.67084c-5.51903,-1.48326 -10.00141,3.96405 -14.73806,6.26881c-9.30705,5.08546 -18.37612,10.90115 -27.957,15.72582c-4.37154,2.85568 -9.87753,4.80837 -13.44714,8.39427c37.23471,-2.38626 74.29013,-5.54837 111.79216,-6.823c4.44978,0.67806 4.13031,5.8711 3.93471,9.43093c-0.0326,8.49207 0.54441,17.22537 0.39771,25.49903c-8.18238,0.70414 -16.51797,1.03665 -24.84705,1.23225z"/>
   </g>
   <g stroke="#646058" stroke-width="0.3" fill-opacity="0" fill="None">
    <path stroke="null" d="m141.65198,243.60352c0.43357,18.63366 -0.80846,38.11163 0,56.72247c0.75304,1.40502 0.1141,5.43753 0.32599,7.82379c0,2.93392 0,5.86784 0,8.80176c0,0.163 0,0.32599 0,0.32599c8.46925,2.71877 16.9711,5.41145 25.42731,8.14978c18.69233,5.89718 37.36511,12.30943 56.07048,17.92952c3.56308,1.13771 7.09031,2.41559 10.75771,3.25991c2.8133,1.99507 0.59982,6.92079 1.30396,10.10573c0,3.91189 0,7.82379 0,11.73568c0,0.8704 0,1.73753 0,2.60793c-23.7289,-1.78643 -47.39912,-3.8141 -71.06608,-5.86784c0,-4.4563 0,-8.90934 0,-13.36564c-7.45542,-0.59982 -15.02493,-0.74326 -22.49339,-1.30396c0.23471,1.28441 -0.48573,2.31454 -0.32599,3.5859c0.15648,9.38203 -0.60308,19.85612 5.54185,26.73128c0.51833,0.38793 1.57454,0.92256 0.97797,1.62996c3.52722,4.3259 9.24185,7.20441 14.99559,7.82379c24.53084,1.15075 47.67947,6.10582 72.37004,6.84582c3.02846,-0.16626 7.5141,0.33903 9.45374,-0.97797c6.50026,-3.37075 12.50176,-9.34943 13.36564,-16.95154c0.02934,-15.23357 -0.15974,-30.5193 0.32599,-45.63877c-1.99833,-3.16863 -7.57278,-2.46775 -10.82943,-4.49216c-28.06132,-7.14899 -55.49348,-16.28978 -83.38203,-23.86908c0,-16.62555 0,-33.2511 0,-49.87665c23.66696,-0.40423 46.97859,-2.24608 70.74009,-2.28194c0,0.65198 0,1.30396 0,1.95595c0,1.30396 0,2.60793 0,3.91189c0.71392,1.00731 0.14018,2.66009 0.32599,3.91189c7.83357,-0.10758 15.81383,-0.24123 23.36379,-1.08555c0.11084,-2.53947 0.31947,-5.33974 -0.11084,-7.82379c-0.48899,-8.50511 2.27542,-22.36626 -9.23533,-23.36379c-28.1526,0.19233 -56.26282,3.33163 -84.4252,4.5704c-6.68934,1.86793 -15.13903,-1.19965 -20.62546,3.82388c-1.88423,0.94537 -1.88423,4.3585 -2.85242,4.64537z"/>
   </g>
   <g stroke="#1E1E1D" stroke-width="0.3" fill-opacity="0" fill="None">
    <path stroke="null" d="m244.99119,396.1674c3.51744,-0.12388 7.06097,-1.08881 10.10573,-1.95595c2.96652,-2.02115 5.2615,-5.46687 5.21586,-9.45374c0,-14.45119 0,-28.90564 0,-43.35683c-0.96819,-3.8467 2.2526,-10.51974 -2.27542,-12.06819c-7.68361,-1.50282 -15.29225,-3.92493 -22.8259,-5.86132c-22.68573,-6.46441 -45.06828,-13.57427 -67.80617,-19.88546c-0.54441,-15.19119 -0.54441,-31.44837 0,-46.61674c22.66943,-0.38467 45.14,-1.55824 67.80617,-1.95595c0,-0.65198 0,-1.30396 0,-1.95595c-23.7615,0.03586 -47.07313,1.87771 -70.74009,2.28194c0,16.62555 0,33.2511 0,49.87665c27.88855,7.5793 55.32071,16.72009 83.38203,23.86908c3.25665,2.02441 8.8311,1.32352 10.82943,4.49216c-0.48573,15.11947 -0.29665,30.4052 -0.32599,45.63877c-0.86388,7.60211 -6.86537,13.58079 -13.36564,16.95154z"/>
   </g>
   <g stroke="#F38723" stroke-width="0.3" fill-opacity="0" fill="None">
    <path stroke="null" d="m167.40528,256.96916c0,4.78229 0,9.56132 0,14.34361c16.60599,0.18907 33.18916,0.46943 49.87665,0.32599c2.06352,0 4.13031,0 6.19383,0c0,10.97612 0,21.94899 0,32.92511c-18.73471,-4.84749 -37.24775,-10.38608 -56.07048,-15.32159c0,4.78229 0,9.56132 0,14.34361c22.73789,6.31119 45.12044,13.42106 67.80617,19.88546c0,-21.51542 0,-43.03084 0,-64.54626c0,-1.30396 0,-2.60793 0,-3.91189c-22.66617,0.39771 -45.13674,1.57128 -67.80617,1.95595z"/>
   </g>
   <g stroke="#4B331D" stroke-width="0.3" fill-opacity="0" fill="None">
    <path stroke="null" d="m167.40528,303.5859c0,-4.78229 0,-9.56132 0,-14.34361c0,-5.54185 0,-11.0837 0,-16.62555c0,-0.43357 0,-0.8704 0,-1.30396c0,-4.78229 0,-9.56132 0,-14.34361c-0.54441,15.16837 -0.54441,31.42555 0,46.61674z"/>
   </g>
   <g stroke="#9E6833" stroke-width="0.3" fill-opacity="0" fill="None">
    <path stroke="null" d="m235.21145,323.47137c0.75956,-19.34758 0.10758,-39.38952 0.32599,-59.00441c0,-0.54441 0,-1.08555 0,-1.62996c-0.18581,-1.25181 0.38793,-2.90458 -0.32599,-3.91189c0,21.51542 0,43.03084 0,64.54626z"/>
   </g>
   <g stroke="#565657" stroke-width="0.3" stroke-opacity="0.98" fill-opacity="0" fill="None">
    <path stroke="null" d="m320.29515,314.6696c2.96,-1.50608 7.98352,-0.22819 11.73568,-0.65198c3.863,0.42705 8.98758,-0.86062 12.06167,0.65198c2.8459,3.01868 0.58026,8.41057 1.3007,12.38441c-1.34308,4.10749 -8.13674,0.98449 -11.73242,1.95921c-4.4563,0 -8.90934,0 -13.36564,0c-3.41965,0.75956 -10.74467,-2.24282 -10.43172,3.25991c0,4.56388 0,9.12775 0,13.69163c-1.10185,5.86458 6.39269,2.87524 9.77974,3.5859c9.02018,0 18.03709,0 27.05727,0c8.20846,1.74405 13.60035,-6.31119 14.01762,-13.36564c-1.38872,-12.11709 3.49789,-26.5259 -4.15639,-36.59251c-5.65269,-6.34053 -15.81709,-2.3993 -23.55286,-3.50441c-4.04555,0.38467 -9.92317,0.69436 -8.14978,-5.21586c0.28361,-3.54352 -1.66907,-10.77075 4.23789,-9.45374c9.02018,0 18.03709,0 27.05727,0c4.6193,-0.63242 1.25833,-7.95744 2.28194,-11.40969c-0.163,-3.72282 1.5941,-10.72511 -4.56388,-9.12775c-4.4563,0 -8.90934,0 -13.36564,0c-8.11392,1.02361 -18.09577,-2.29172 -24.87313,2.18414c-7.17507,4.70079 -5.67877,14.01436 -5.77004,21.61322c0.1304,10.66317 -2.73833,27.12899 10.43172,29.99119z"/>
   </g>
   <g stroke="#565657" stroke-width="0.3" stroke-opacity="0.98" fill-opacity="0" fill="None">
    <path stroke="null" d="m416.13656,260.88106c-16.04855,0.22493 -32.33507,-0.44987 -48.23692,0.33577c-2.21022,2.61119 -0.39771,7.79119 -0.98775,11.39991c0.8215,3.11322 -1.91683,9.13753 1.95595,10.10573c4.01947,0 8.0422,0 12.06167,0c4.59974,-0.05542 1.87119,6.45463 2.60793,9.45374c0,16.19198 0,32.38071 0,48.57269c0.41401,3.00564 -1.62018,9.36899 3.25991,8.80176c4.12053,-0.0163 8.24106,0.0326 12.36159,-0.02608c2.83938,-2.19718 0.63242,-7.34132 1.33004,-10.73163c0,-16.19198 0,-32.38071 0,-48.57269c-0.28361,-3.43595 -0.45965,-8.95172 4.56388,-7.4978c3.86626,-0.23145 8.00634,0.46943 11.70308,-0.35859c2.03744,-2.95348 0.5607,-7.4489 1.01057,-11.0511c-0.47595,-3.41639 1.23877,-8.08458 -1.62996,-10.43172z"/>
   </g>
   <g stroke="#565657" stroke-width="0.3" stroke-opacity="0.99" fill-opacity="0" fill="None">
    <path stroke="null" d="m470.90308,260.88106c-11.81718,0.0489 -23.65066,-0.09454 -35.46132,0.07172c-6.06018,1.07251 -10.24916,7.5793 -10.17745,13.61991c0,23.68978 0,47.3763 0,71.06608c-1.51912,5.38863 4.60626,3.7163 7.82379,3.91189c2.9274,-0.69762 9.04626,1.94291 9.12775,-2.60793c0.14996,-7.83683 -0.30317,-15.83991 0.22819,-23.56916c2.69269,-1.99833 7.38696,-0.33251 10.85551,-0.88018c3.27621,0.7074 8.37471,-1.50608 10.45454,1.28115c0.70414,7.66731 0.10106,15.6867 0.30317,23.49419c0.47921,4.23137 6.51656,1.5126 9.45374,2.28194c3.29903,0.11084 8.98432,0.96167 7.4978,-4.23789c0,-15.75515 0,-31.51357 0,-47.26872c-1.28767,-12.56696 5.017,-32.27639 -10.10573,-37.163m-6.84582,20.21145c0,7.27938 0,14.56203 0,21.84141c-7.27938,0 -14.56203,0 -21.84141,0c0,-7.27938 0,-14.56203 0,-21.84141c7.27938,0 14.56203,0 21.84141,0z"/>
   </g>
   <g stroke="#565657" stroke-width="0.3" stroke-opacity="0.98" fill-opacity="0" fill="None">
    <path stroke="null" d="m546.20705,336.51101c-0.54115,-6.27859 -0.54441,-13.62969 0,-19.88546c-0.26405,-4.24115 -4.05859,-6.95991 -5.54185,-10.75771c0.43031,-4.20529 4.25744,-7.09683 5.21586,-11.0837c0,-0.54441 0,-1.08555 0,-1.62996c0,-6.19383 0,-12.38767 0,-18.5815c0,-0.75956 0,-1.52238 0,-2.28194c-0.6911,-7.38044 -7.80423,-12.95815 -15.32159,-11.40969c-13.04943,0.14996 -26.27163,-0.30317 -39.21674,0.22819c-2.41885,3.04802 -0.67154,8.22476 -1.20617,12.15947c0,22.05982 0,44.11639 0,66.17621c0.69762,3.27621 -2.11568,10.62731 3.25991,10.10573c13.14722,0 26.29771,0 39.44493,0c7.77489,1.42458 13.2385,-6.13515 13.36564,-13.03965m-15.64758,-56.07048c0,5.21586 0,10.43172 0,15.64758c-8.25736,0 -16.51797,0 -24.77533,0c0,-5.21586 0,-10.43172 0,-15.64758c8.25736,0 16.51797,0 24.77533,0m0,32.59912c0,5.76026 0,11.51727 0,17.27753c-8.25736,0 -16.51797,0 -24.77533,0c0,-5.76026 0,-11.51727 0,-17.27753c8.25736,0 16.51797,0 24.77533,0z"/>
   </g>
   <g stroke="#575758" stroke-width="0.3" stroke-opacity="0.99" fill-opacity="0" fill="None">
    <path stroke="null" d="m572.61233,326.40529c-0.00326,-0.02608 -0.32599,0 -0.32599,0c-0.75956,-2.72529 -0.11084,-8.03568 -0.32599,-11.73568c0.21841,-17.11454 -0.43357,-34.65938 0.32599,-51.50661c-0.62264,-4.20855 -6.74802,-1.52238 -9.77974,-2.28194c-3.7978,-0.44987 -8.81154,-0.37163 -7.17181,4.88987c0.163,27.70925 -0.32599,55.62388 0.24449,83.20925c3.42617,1.31374 7.72599,0.20211 11.49119,0.57048c7.93137,0 15.86599,0 23.79736,0c2.96652,-0.66176 9.5385,1.98529 9.12775,-2.93392c0,-4.01947 0,-8.0422 0,-12.06167c0.59982,-3.66414 0.0326,-8.34863 -4.88987,-6.84582c-4.01947,0 -8.0422,0 -12.06167,0c-3.25665,-0.72044 -8.43991,1.5289 -10.43172,-1.30396z"/>
   </g>
   <g stroke="#E47F1C" stroke-width="0.3" stroke-opacity="0.98" fill-opacity="0" fill="None">
    <path stroke="null" d="m640.74449,328.68723c-8.36819,0 -16.73313,0 -25.10132,0c-3.48159,0.10432 -9.80907,-1.39524 -8.47577,4.23789c0,4.13031 0,8.25736 0,12.38767c-1.4148,5.66899 5.0333,4.11401 8.47577,4.23789c4.13031,0 8.25736,0 12.38767,0c7.82705,-0.7237 16.50819,1.56802 23.71586,-1.38546c6.27207,-4.21507 6.29163,-12.19207 5.94934,-19.15198c0,-12.49524 0,-24.99374 0,-37.48899c-0.67806,-10.3111 3.23057,-24.71013 -7.80097,-30.01401c-11.96714,-1.43436 -24.62211,-0.23471 -36.85982,-0.62916c-4.86053,-1.44088 -6.97295,2.11894 -5.86784,6.51982c0.0163,4.22811 -0.0326,8.45947 0.02608,12.68758c1.90053,3.43269 7.3511,0.85736 10.73163,1.65604c4.23789,0 8.47577,0 12.71366,0c3.07084,0.95841 10.11877,-2.23956 10.10573,2.28194c0,4.13031 0,8.25736 0,12.38767c-8.47577,0 -16.95154,0 -25.42731,0c-5.24194,-0.90626 -3.20775,5.66247 -3.5859,8.80176c0.29991,3.26317 -1.5941,10.06987 3.91189,8.80176c8.36819,0 16.73313,0 25.10132,0c0,4.88987 0,9.77974 0,14.6696z"/>
   </g>
   <g stroke="#585858" stroke-width="0.3" stroke-opacity="0.27" fill-opacity="0" fill="None">
    <path stroke="null" d="m572.28634,326.40529c0,-20.97101 0,-41.94529 0,-62.9163c0,0 -0.01304,-0.163 0,-0.32599c-0.75956,16.84722 -0.10758,34.39207 -0.32599,51.50661c0.21515,3.7 -0.43357,9.0104 0.32599,11.73568z"/>
   </g>
   <g stroke="#808080" stroke-width="0.3" stroke-opacity="0.01" fill-opacity="0" fill="None">
    <path stroke="null" d="m572.28634,326.40529c0,0 0.32273,-0.02608 0.32599,0c-0.21515,-20.92211 0.43357,-42.23868 -0.32599,-62.9163c0,20.97101 0,41.94529 0,62.9163z"/>
   </g>
   <g stroke="#8E4C21" stroke-width="0.3" fill-opacity="0" fill="None">
    <path stroke="null" d="m167.40528,272.61674c18.62714,0.03912 37.20537,0.25753 55.74449,0.65198c0.0815,-2.8133 -4.41718,-0.31621 -5.86784,-1.62996c-16.68749,0.14344 -33.27066,-0.13692 -49.87665,-0.32599c0,0.43357 0,0.8704 0,1.30396z"/>
   </g>
   <g stroke="#B96429" stroke-width="0.3" fill-opacity="0" fill="None">
    <path stroke="null" d="m167.40528,272.61674c0,5.54185 0,11.0837 0,16.62555c18.82273,4.93551 37.33577,10.4741 56.07048,15.32159c0,-10.97612 0,-21.94899 0,-32.92511c-2.06352,0 -4.13031,0 -6.19383,0c1.45066,1.31374 5.94934,-1.18335 5.86784,1.62996c-18.53912,-0.39445 -37.11736,-0.61286 -55.74449,-0.65198z"/>
   </g>
   <g stroke="#7A7A7A" stroke-width="0.3" stroke-opacity="0.01" fill-opacity="0" fill="None">
    <path stroke="null" d="m545.88106,274.57269c0.54115,5.84502 0.54441,12.7593 0,18.5815c0,0.54441 0,1.08555 0,1.62996c1.10837,-6.96969 1.01709,-15.49762 0,-22.49339c0,0.75956 0,1.52238 0,2.28194z"/>
   </g>
   <g stroke="#5A5A5A" stroke-width="0.3" stroke-opacity="0.27" fill-opacity="0" fill="None">
    <path stroke="null" d="m545.88106,293.15419c0.54441,-5.8222 0.54115,-12.73648 0,-18.5815c0,6.19383 0,12.38767 0,18.5815z"/>
   </g>
   <g stroke="#000000" stroke-width="0.3" stroke-opacity="0" fill-opacity="0" fill="None">
    <path stroke="null" d="m530.55947,280.44053c-8.25736,0 -16.51797,0 -24.77533,0c0,5.21586 0,10.43172 0,15.64758c8.25736,0 16.51797,0 24.77533,0c0,-5.21586 0,-10.43172 0,-15.64758z"/>
   </g>
   <g stroke="#000000" stroke-width="0.3" stroke-opacity="0" fill-opacity="0" fill="None">
    <path stroke="null" d="m464.05727,281.09251c-7.27938,0 -14.56203,0 -21.84141,0c0,7.27938 0,14.56203 0,21.84141c7.27938,0 14.56203,0 21.84141,0c0,-7.27938 0,-14.56203 0,-21.84141z"/>
   </g>
   <g stroke="#635F57" stroke-width="0.3" stroke-opacity="0.25" fill-opacity="0" fill="None">
    <path stroke="null" d="m141.65198,300.32599c0,5.43427 0,10.86529 0,16.29956c0,0.163 0,0.32599 0,0.32599c0.0815,0.0815 0.32599,0 0.32599,0c0,-2.93392 0,-5.86784 0,-8.80176c-0.21189,-2.38626 0.42705,-6.41877 -0.32599,-7.82379z"/>
   </g>
   <g stroke="#000000" stroke-width="0.3" stroke-opacity="0" fill-opacity="0" fill="None">
    <path stroke="null" d="m530.55947,313.03965c-8.25736,0 -16.51797,0 -24.77533,0c0,5.76026 0,11.51727 0,17.27753c8.25736,0 16.51797,0 24.77533,0c0,-5.76026 0,-11.51727 0,-17.27753z"/>
   </g>
   <g stroke="#585858" stroke-width="0.3" stroke-opacity="0.5" fill-opacity="0" fill="None">
    <path stroke="null" d="m320.29515,314.6696c7.93137,0 15.86599,0 23.79736,0c-3.0741,-1.5126 -8.19868,-0.22493 -12.06167,-0.65198c-3.75216,0.42379 -8.77568,-0.8541 -11.73568,0.65198z"/>
   </g>
   <g stroke="#404040" stroke-width="0.3" stroke-opacity="0.11" fill-opacity="0" fill="None">
    <path stroke="null" d="m141.65198,335.53304c0,-6.19383 0,-12.38767 0,-18.5815c0,0 0,-0.163 0,-0.32599c-0.54441,5.92978 -0.54115,12.95489 0,18.90749z"/>
   </g>
   <g stroke="#59595A" stroke-width="0.3" stroke-opacity="0.26" fill-opacity="0" fill="None">
    <path stroke="null" d="m546.20705,336.51101c0,0 0,-0.163 0,-0.32599c0,-6.41225 0,-12.82123 0,-19.23348c0,0 0.00326,-0.163 0,-0.32599c-0.54441,6.25577 -0.54115,13.60687 0,19.88546z"/>
   </g>
   <g stroke="#43433E" stroke-width="0.3" stroke-opacity="0.58" fill-opacity="0" fill="None">
    <path stroke="null" d="m141.65198,335.53304c0,-0.01304 0.32599,0 0.32599,0c0,-6.08626 0,-12.16925 0,-18.25551c0,0 0,-0.163 0,-0.32599c0,0 -0.24449,0.0815 -0.32599,0c0,6.19383 0,12.38767 0,18.5815z"/>
   </g>
   <g stroke="#808080" stroke-width="0.3" stroke-opacity="0.01" fill-opacity="0" fill="None">
    <path stroke="null" d="m546.20705,336.18502c0.54441,-6.04062 0.54441,-13.17004 0,-19.23348c0,6.41225 0,12.82123 0,19.23348z"/>
   </g>
   <g stroke="#47473F" stroke-width="0.3" fill-opacity="0" fill="None">
    <path stroke="null" d="m141.97797,335.53304c0,4.4563 0,8.90934 0,13.36564c8.48881,0.48899 17.00696,0.85736 25.42731,1.62996c0,-8.36819 0,-16.73313 0,-25.10132c-8.45621,-2.73833 -16.95806,-5.43101 -25.42731,-8.14978c0,6.08626 0,12.16925 0,18.25551z"/>
   </g>
   <g stroke="#B8632A" stroke-width="0.3" fill-opacity="0" fill="None">
    <path stroke="null" d="m167.40528,350.52864c0,0.163 0,0.32599 0,0.32599c18.66952,0.73022 37.14018,2.24934 55.74449,3.25991c0,0.54441 0,1.08555 0,1.62996c0.42379,-3.66414 -0.577,-8.62573 0.32599,-12.38767c-18.70537,-5.62009 -37.37815,-12.03233 -56.07048,-17.92952c0,8.36819 0,16.73313 0,25.10132z"/>
   </g>
   <g stroke="#43433C" stroke-width="0.3" stroke-opacity="0.25" fill-opacity="0" fill="None">
    <path stroke="null" d="m141.65198,350.52864c0,0.00652 0.32599,0 0.32599,0c0,-0.54441 0,-1.08555 0,-1.62996c0,-4.4563 0,-8.90934 0,-13.36564c0,0 -0.32599,-0.01304 -0.32599,0c0,4.99744 0,9.99815 0,14.99559z"/>
   </g>
   <g stroke="#F28723" stroke-width="0.3" fill-opacity="0" fill="None">
    <path stroke="null" d="m223.14978,355.74449c-18.62062,-1.03013 -37.07172,-2.74811 -55.74449,-3.5859c0,3.80432 0,7.60537 0,11.40969c0.75956,0 1.52238,0 2.28194,0c2.85568,0.09454 5.92978,0.163 8.47577,0.97797c19.11938,0.88996 37.92256,3.03824 57.04846,3.91189c0,-3.80432 0,-7.60537 0,-11.40969c-0.52811,-3.38705 1.13119,-7.82379 -0.97797,-10.43172c-3.6674,-0.84432 -7.19463,-2.1222 -10.75771,-3.25991c-0.903,3.76194 0.0978,8.72352 -0.32599,12.38767z"/>
   </g>
   <g stroke="#AD753F" stroke-width="0.3" fill-opacity="0" fill="None">
    <path stroke="null" d="m235.21145,368.45815c0.163,0 0.32599,0 0.32599,0c0,-3.91189 0,-7.82379 0,-11.73568c-0.70414,-3.18493 1.50934,-8.11066 -1.30396,-10.10573c2.10916,2.60793 0.44987,7.04467 0.97797,10.43172c0,3.80432 0,7.60537 0,11.40969z"/>
   </g>
   <g stroke="#23221E" stroke-width="0.3" fill-opacity="0" fill="None">
    <path stroke="null" d="m141.97797,350.52864c7.46846,0.5607 15.03797,0.70414 22.49339,1.30396c0,4.4563 0,8.90934 0,13.36564c23.66696,2.05374 47.33718,4.08141 71.06608,5.86784c0,-0.8704 0,-1.73753 0,-2.60793c0,0 -0.163,0 -0.32599,0c-19.1259,-0.87366 -37.92908,-3.02194 -57.04846,-3.91189c-2.80026,-0.30643 -5.87762,-0.35859 -8.47577,-0.97797c-0.75956,0 -1.52238,0 -2.28194,0c0,-3.80432 0,-7.60537 0,-11.40969c0,-0.43357 0,-0.8704 0,-1.30396c0,0 0,-0.163 0,-0.32599c-8.42035,-0.7726 -16.9385,-1.14097 -25.42731,-1.62996c0,0.54441 0,1.08555 0,1.62996z"/>
   </g>
   <g stroke="#676158" stroke-width="0.3" stroke-opacity="0.18" fill-opacity="0" fill="None">
    <path stroke="null" d="m141.65198,354.11454c-0.15974,-1.27137 0.5607,-2.3015 0.32599,-3.5859c0,0 -0.32599,0.00652 -0.32599,0c0.40423,1.23225 -0.88018,2.61119 0,3.5859z"/>
   </g>
   <g stroke="#914E21" stroke-width="0.3" fill-opacity="0" fill="None">
    <path stroke="null" d="m167.40528,352.15859c18.67278,0.8378 37.12388,2.55577 55.74449,3.5859c0,-0.54441 0,-1.08555 0,-1.62996c-18.60432,-1.01057 -37.07498,-2.52969 -55.74449,-3.25991c0,0.43357 0,0.8704 0,1.30396z"/>
   </g>
   <g stroke="#935821" stroke-width="0.3" fill-opacity="0" fill="None">
    <path stroke="null" d="m178.16299,364.54626c-2.54599,-0.81498 -5.62009,-0.88344 -8.47577,-0.97797c2.59815,0.61938 5.67551,0.67154 8.47577,0.97797z"/>
   </g>
   <g stroke="#676159" stroke-width="0.3" stroke-opacity="0.58" fill-opacity="0" fill="None">
    <path stroke="null" d="m148.1718,382.47577c0.59656,-0.7074 -0.45965,-1.24203 -0.97797,-1.62996c-0.15648,0.74326 0.34229,1.33656 0.97797,1.62996z"/>
   </g>
   <g stroke="None" fill-opacity="0" fill="#000000">
    <path stroke="null" d="m141,398.44934l518,0l0,-196.89868l-518,0l0,196.89868m158.43172,-161.03965c1.26159,33.20546 0.39771,66.94555 0.65198,100.40529c-1.3822,14.04044 4.85727,33.24784 -9.04626,41.48238c-11.86282,5.05938 -24.29286,9.89057 -35.94053,14.9141c-3.04476,0.86714 -6.58828,1.83207 -10.10573,1.95595c-1.93965,1.317 -6.42529,0.81172 -9.45374,0.97797c-24.69057,-0.74 -47.83921,-5.69507 -72.37004,-6.84582c-5.75374,-0.61938 -11.46837,-3.49789 -14.99559,-7.82379c-0.63568,-0.29339 -1.13445,-0.8867 -0.97797,-1.62996c-6.14493,-6.87515 -5.38537,-17.34925 -5.54185,-26.73128c-0.88018,-0.97471 0.40423,-2.35366 0,-3.5859c0,-4.99744 0,-9.99815 0,-14.99559c-0.54115,-5.9526 -0.54441,-12.97771 0,-18.90749c0,-5.43427 0,-10.86529 0,-16.29956c-0.80846,-18.61084 0.43357,-38.08881 0,-56.72247c-0.99753,-5.74722 0.51181,-11.48141 6.5459,-13.01357c12.34203,-6.99903 24.55692,-14.69894 37.20863,-21.46978c4.36502,-2.13524 7.87921,-5.73419 12.64194,-6.91753c29.35877,10.34044 57.96775,20.08758 87.69163,29.01322c4.36828,2.37974 10.83269,2.02115 13.69163,6.19383m44.66079,77.25991c-7.93137,0 -15.86599,0 -23.79736,0c-13.17004,-2.8622 -10.30132,-19.32802 -10.43172,-29.99119c0.09128,-7.59885 -1.40502,-16.91242 5.77004,-21.61322c6.77736,-4.47586 16.75921,-1.16053 24.87313,-2.18414c4.4563,0 8.90934,0 13.36564,0c6.15797,-1.59736 4.40088,5.40493 4.56388,9.12775c-1.02361,3.45225 2.33736,10.77727 -2.28194,11.40969c-9.02018,0 -18.03709,0 -27.05727,0c-5.90696,-1.317 -3.95427,5.91022 -4.23789,9.45374c-1.77339,5.91022 4.10423,5.60053 8.14978,5.21586c7.73577,1.10511 17.90018,-2.83612 23.55286,3.50441c7.65427,10.06661 2.76767,24.47542 4.15639,36.59251c-0.41727,7.05445 -5.80916,15.10969 -14.01762,13.36564c-9.02018,0 -18.03709,0 -27.05727,0c-3.38705,-0.71066 -10.88159,2.27868 -9.77974,-3.5859c0,-4.56388 0,-9.12775 0,-13.69163c-0.31295,-5.50273 7.01207,-2.50035 10.43172,-3.25991c4.4563,0 8.90934,0 13.36564,0c3.59568,-0.97471 10.38934,2.14828 11.73242,-1.95921c-0.72044,-3.97383 1.5452,-9.36573 -1.3007,-12.38441m72.04405,-53.78855c2.86872,2.34714 1.15401,7.01533 1.62996,10.43172c-0.44987,3.6022 1.02687,8.09762 -1.01057,11.0511c-3.69674,0.82802 -7.83683,0.12714 -11.70308,0.35859c-5.02352,-1.45392 -4.84749,4.06185 -4.56388,7.4978c0,16.19198 0,32.38071 0,48.57269c-0.69762,3.39031 1.50934,8.53445 -1.33004,10.73163c-4.12053,0.05868 -8.24106,0.00978 -12.36159,0.02608c-4.88009,0.56722 -2.8459,-5.79612 -3.25991,-8.80176c0,-16.19198 0,-32.38071 0,-48.57269c-0.73674,-2.99912 1.99181,-9.50916 -2.60793,-9.45374c-4.01947,0 -8.0422,0 -12.06167,0c-3.87278,-0.96819 -1.13445,-6.99251 -1.95595,-10.10573c0.59004,-3.60872 -1.22247,-8.78872 0.98775,-11.39991c15.90185,-0.78564 32.18837,-0.11084 48.23692,-0.33577m54.76652,0c15.12273,4.88661 8.81806,24.59604 10.10573,37.163c0,15.75515 0,31.51357 0,47.26872c1.48652,5.19956 -4.19877,4.34872 -7.4978,4.23789c-2.93718,-0.76934 -8.97454,1.94943 -9.45374,-2.28194c-0.20211,-7.80749 0.40097,-15.82687 -0.30317,-23.49419c-2.07982,-2.78722 -7.17833,-0.57374 -10.45454,-1.28115c-3.46855,0.54767 -8.16282,-1.11815 -10.85551,0.88018c-0.53137,7.72925 -0.07824,15.73233 -0.22819,23.56916c-0.0815,4.55084 -6.20035,1.91031 -9.12775,2.60793c-3.21753,-0.19559 -9.34291,1.47674 -7.82379,-3.91189c0,-23.68978 0,-47.3763 0,-71.06608c-0.07172,-6.04062 4.11727,-12.5474 10.17745,-13.61991c11.81066,-0.16626 23.64414,-0.02282 35.46132,-0.07172m74.97797,11.40969c1.01709,6.99577 1.10837,15.5237 0,22.49339c-0.95841,3.98687 -4.78555,6.87841 -5.21586,11.0837c1.48326,3.7978 5.2778,6.51656 5.54185,10.75771c0.00326,0.163 0,0.32599 0,0.32599c0.54441,6.06344 0.54441,13.19286 0,19.23348c0,0.163 0,0.32599 0,0.32599c-0.12714,6.90449 -5.59075,14.46423 -13.36564,13.03965c-13.14722,0 -26.29771,0 -39.44493,0c-5.37559,0.52159 -2.56229,-6.82952 -3.25991,-10.10573c0,-22.05982 0,-44.11639 0,-66.17621c0.53463,-3.93471 -1.21269,-9.11145 1.20617,-12.15947c12.94511,-0.53137 26.16731,-0.07824 39.21674,-0.22819c7.51736,-1.54846 14.63048,4.02925 15.32159,11.40969m26.40529,-9.12775c-0.01304,0.163 0,0.32599 0,0.32599c0.75956,20.67762 0.11084,41.99419 0.32599,62.9163c1.99181,2.83286 7.17507,0.58352 10.43172,1.30396c4.01947,0 8.0422,0 12.06167,0c4.92247,-1.50282 5.48969,3.18167 4.88987,6.84582c0,4.01947 0,8.0422 0,12.06167c0.41075,4.91921 -6.16123,2.27216 -9.12775,2.93392c-7.93137,0 -15.86599,0 -23.79736,0c-3.7652,-0.36837 -8.06502,0.74326 -11.49119,-0.57048c-0.57048,-27.58537 -0.0815,-55.5 -0.24449,-83.20925c-1.63974,-5.2615 3.37401,-5.33974 7.17181,-4.88987c3.03172,0.75956 9.15709,-1.92661 9.77974,2.28194m68.45815,65.52423c0,-4.88987 0,-9.77974 0,-14.6696c-8.36819,0 -16.73313,0 -25.10132,0c-5.50599,1.26811 -3.61198,-5.53859 -3.91189,-8.80176c0.37815,-3.1393 -1.65604,-9.70802 3.5859,-8.80176c8.47577,0 16.95154,0 25.42731,0c0,-4.13031 0,-8.25736 0,-12.38767c0.01304,-4.5215 -7.03489,-1.32352 -10.10573,-2.28194c-4.23789,0 -8.47577,0 -12.71366,0c-3.38053,-0.79868 -8.8311,1.77665 -10.73163,-1.65604c-0.05868,-4.22811 -0.00978,-8.45947 -0.02608,-12.68758c-1.10511,-4.40088 1.00731,-7.9607 5.86784,-6.51982c12.23771,0.39445 24.89269,-0.8052 36.85982,0.62916c11.03154,5.30388 7.12291,19.70291 7.80097,30.01401c0,12.49524 0,24.99374 0,37.48899c0.34229,6.95991 0.32273,14.93692 -5.94934,19.15198c-7.20767,2.95348 -15.88881,0.66176 -23.71586,1.38546c-4.13031,0 -8.25736,0 -12.38767,0c-3.44247,-0.12388 -9.89057,1.4311 -8.47577,-4.23789c0,-4.13031 0,-8.25736 0,-12.38767c-1.3333,-5.63313 4.99419,-4.13357 8.47577,-4.23789c8.36819,0 16.73313,0 25.10132,0z"/>
   </g>
   <g stroke="None" fill-opacity="0.94" fill="#20201F">
    <path stroke="null" d="m141.65198,243.60352c0.96819,-0.28687 0.96819,-3.7 2.85242,-4.64537c5.48643,-5.02352 13.93612,-1.95595 20.62546,-3.82388c28.16238,-1.23877 56.2726,-4.37806 84.4252,-4.5704c11.51075,0.99753 8.74634,14.85868 9.23533,23.36379c0.43031,2.48405 0.22167,5.28432 0.11084,7.82379c-7.54996,0.84432 -15.53022,0.97797 -23.36379,1.08555c0,0.54441 0,1.08555 0,1.62996c8.32907,-0.19559 16.66467,-0.52811 24.84705,-1.23225c0.1467,-8.27366 -0.43031,-17.00696 -0.39771,-25.49903c0.19559,-3.55982 0.51507,-8.75286 -3.93471,-9.43093c-37.50203,1.27463 -74.55745,4.43674 -111.79216,6.823c3.5696,-3.5859 9.07559,-5.53859 13.44714,-8.39427c9.58088,-4.82467 18.64996,-10.64035 27.957,-15.72582c4.73665,-2.30476 9.21903,-7.75207 14.73806,-6.26881c32.41656,12.5474 65.98062,22.40863 99.0296,32.67084c-2.85894,-4.17269 -9.32335,-3.8141 -13.69163,-6.19383c-29.72388,-8.92564 -58.33286,-18.67278 -87.69163,-29.01322c-4.76273,1.18335 -8.27692,4.78229 -12.64194,6.91753c-12.65172,6.77084 -24.86661,14.47075 -37.20863,21.46978c-6.0341,1.53216 -7.54344,7.26634 -6.5459,13.01357z"/>
   </g>
   <g stroke="None" fill="#474740">
    <path stroke="null" d="m235.53744,264.46696c-0.21841,19.61489 0.43357,39.65683 -0.32599,59.00441c7.53366,1.93639 15.14229,4.3585 22.8259,5.86132c4.52802,1.54846 1.30722,8.2215 2.27542,12.06819c0,14.45119 0,28.90564 0,43.35683c0.04564,3.98687 -2.24934,7.4326 -5.21586,9.45374c11.64767,-5.02352 24.07771,-9.85471 35.94053,-14.9141c13.90352,-8.23454 7.66405,-27.44194 9.04626,-41.48238c-0.25427,-33.45974 0.6096,-67.19982 -0.65198,-100.40529c-33.04899,-10.2622 -66.61304,-20.12344 -99.0296,-32.67084c-5.51903,-1.48326 -10.00141,3.96405 -14.73806,6.26881c-9.30705,5.08546 -18.37612,10.90115 -27.957,15.72582c-4.37154,2.85568 -9.87753,4.80837 -13.44714,8.39427c37.23471,-2.38626 74.29013,-5.54837 111.79216,-6.823c4.44978,0.67806 4.13031,5.8711 3.93471,9.43093c-0.0326,8.49207 0.54441,17.22537 0.39771,25.49903c-8.18238,0.70414 -16.51797,1.03665 -24.84705,1.23225z"/>
   </g>
   <g stroke="None" fill="#646058">
    <path stroke="null" d="m141.65198,243.60352c0.43357,18.63366 -0.80846,38.11163 0,56.72247c0.75304,1.40502 0.1141,5.43753 0.32599,7.82379c0,2.93392 0,5.86784 0,8.80176c0,0.163 0,0.32599 0,0.32599c8.46925,2.71877 16.9711,5.41145 25.42731,8.14978c18.69233,5.89718 37.36511,12.30943 56.07048,17.92952c3.56308,1.13771 7.09031,2.41559 10.75771,3.25991c2.8133,1.99507 0.59982,6.92079 1.30396,10.10573c0,3.91189 0,7.82379 0,11.73568c0,0.8704 0,1.73753 0,2.60793c-23.7289,-1.78643 -47.39912,-3.8141 -71.06608,-5.86784c0,-4.4563 0,-8.90934 0,-13.36564c-7.45542,-0.59982 -15.02493,-0.74326 -22.49339,-1.30396c0.23471,1.28441 -0.48573,2.31454 -0.32599,3.5859c0.15648,9.38203 -0.60308,19.85612 5.54185,26.73128c0.51833,0.38793 1.57454,0.92256 0.97797,1.62996c3.52722,4.3259 9.24185,7.20441 14.99559,7.82379c24.53084,1.15075 47.67947,6.10582 72.37004,6.84582c3.02846,-0.16626 7.5141,0.33903 9.45374,-0.97797c6.50026,-3.37075 12.50176,-9.34943 13.36564,-16.95154c0.02934,-15.23357 -0.15974,-30.5193 0.32599,-45.63877c-1.99833,-3.16863 -7.57278,-2.46775 -10.82943,-4.49216c-28.06132,-7.14899 -55.49348,-16.28978 -83.38203,-23.86908c0,-16.62555 0,-33.2511 0,-49.87665c23.66696,-0.40423 46.97859,-2.24608 70.74009,-2.28194c0,0.65198 0,1.30396 0,1.95595c0,1.30396 0,2.60793 0,3.91189c0.71392,1.00731 0.14018,2.66009 0.32599,3.91189c7.83357,-0.10758 15.81383,-0.24123 23.36379,-1.08555c0.11084,-2.53947 0.31947,-5.33974 -0.11084,-7.82379c-0.48899,-8.50511 2.27542,-22.36626 -9.23533,-23.36379c-28.1526,0.19233 -56.26282,3.33163 -84.4252,4.5704c-6.68934,1.86793 -15.13903,-1.19965 -20.62546,3.82388c-1.88423,0.94537 -1.88423,4.3585 -2.85242,4.64537z"/>
   </g>
   <g stroke="None" fill="#1E1E1D">
    <path stroke="null" d="m244.99119,396.1674c3.51744,-0.12388 7.06097,-1.08881 10.10573,-1.95595c2.96652,-2.02115 5.2615,-5.46687 5.21586,-9.45374c0,-14.45119 0,-28.90564 0,-43.35683c-0.96819,-3.8467 2.2526,-10.51974 -2.27542,-12.06819c-7.68361,-1.50282 -15.29225,-3.92493 -22.8259,-5.86132c-22.68573,-6.46441 -45.06828,-13.57427 -67.80617,-19.88546c-0.54441,-15.19119 -0.54441,-31.44837 0,-46.61674c22.66943,-0.38467 45.14,-1.55824 67.80617,-1.95595c0,-0.65198 0,-1.30396 0,-1.95595c-23.7615,0.03586 -47.07313,1.87771 -70.74009,2.28194c0,16.62555 0,33.2511 0,49.87665c27.88855,7.5793 55.32071,16.72009 83.38203,23.86908c3.25665,2.02441 8.8311,1.32352 10.82943,4.49216c-0.48573,15.11947 -0.29665,30.4052 -0.32599,45.63877c-0.86388,7.60211 -6.86537,13.58079 -13.36564,16.95154z"/>
   </g>
   <g stroke="None" fill="#F38723">
    <path stroke="null" d="m167.40528,256.96916c0,4.78229 0,9.56132 0,14.34361c16.60599,0.18907 33.18916,0.46943 49.87665,0.32599c2.06352,0 4.13031,0 6.19383,0c0,10.97612 0,21.94899 0,32.92511c-18.73471,-4.84749 -37.24775,-10.38608 -56.07048,-15.32159c0,4.78229 0,9.56132 0,14.34361c22.73789,6.31119 45.12044,13.42106 67.80617,19.88546c0,-21.51542 0,-43.03084 0,-64.54626c0,-1.30396 0,-2.60793 0,-3.91189c-22.66617,0.39771 -45.13674,1.57128 -67.80617,1.95595z"/>
   </g>
   <g stroke="None" fill="#4B331D">
    <path stroke="null" d="m167.40528,303.5859c0,-4.78229 0,-9.56132 0,-14.34361c0,-5.54185 0,-11.0837 0,-16.62555c0,-0.43357 0,-0.8704 0,-1.30396c0,-4.78229 0,-9.56132 0,-14.34361c-0.54441,15.16837 -0.54441,31.42555 0,46.61674z"/>
   </g>
   <g stroke="None" fill="#9E6833">
    <path stroke="null" d="m235.21145,323.47137c0.75956,-19.34758 0.10758,-39.38952 0.32599,-59.00441c0,-0.54441 0,-1.08555 0,-1.62996c-0.18581,-1.25181 0.38793,-2.90458 -0.32599,-3.91189c0,21.51542 0,43.03084 0,64.54626z"/>
   </g>
   <g stroke="None" fill-opacity="0.98" fill="#565657">
    <path stroke="null" d="m320.29515,314.6696c2.96,-1.50608 7.98352,-0.22819 11.73568,-0.65198c3.863,0.42705 8.98758,-0.86062 12.06167,0.65198c2.8459,3.01868 0.58026,8.41057 1.3007,12.38441c-1.34308,4.10749 -8.13674,0.98449 -11.73242,1.95921c-4.4563,0 -8.90934,0 -13.36564,0c-3.41965,0.75956 -10.74467,-2.24282 -10.43172,3.25991c0,4.56388 0,9.12775 0,13.69163c-1.10185,5.86458 6.39269,2.87524 9.77974,3.5859c9.02018,0 18.03709,0 27.05727,0c8.20846,1.74405 13.60035,-6.31119 14.01762,-13.36564c-1.38872,-12.11709 3.49789,-26.5259 -4.15639,-36.59251c-5.65269,-6.34053 -15.81709,-2.3993 -23.55286,-3.50441c-4.04555,0.38467 -9.92317,0.69436 -8.14978,-5.21586c0.28361,-3.54352 -1.66907,-10.77075 4.23789,-9.45374c9.02018,0 18.03709,0 27.05727,0c4.6193,-0.63242 1.25833,-7.95744 2.28194,-11.40969c-0.163,-3.72282 1.5941,-10.72511 -4.56388,-9.12775c-4.4563,0 -8.90934,0 -13.36564,0c-8.11392,1.02361 -18.09577,-2.29172 -24.87313,2.18414c-7.17507,4.70079 -5.67877,14.01436 -5.77004,21.61322c0.1304,10.66317 -2.73833,27.12899 10.43172,29.99119z"/>
   </g>
   <g stroke="None" fill-opacity="0.98" fill="#565657">
    <path stroke="null" d="m416.13656,260.88106c-16.04855,0.22493 -32.33507,-0.44987 -48.23692,0.33577c-2.21022,2.61119 -0.39771,7.79119 -0.98775,11.39991c0.8215,3.11322 -1.91683,9.13753 1.95595,10.10573c4.01947,0 8.0422,0 12.06167,0c4.59974,-0.05542 1.87119,6.45463 2.60793,9.45374c0,16.19198 0,32.38071 0,48.57269c0.41401,3.00564 -1.62018,9.36899 3.25991,8.80176c4.12053,-0.0163 8.24106,0.0326 12.36159,-0.02608c2.83938,-2.19718 0.63242,-7.34132 1.33004,-10.73163c0,-16.19198 0,-32.38071 0,-48.57269c-0.28361,-3.43595 -0.45965,-8.95172 4.56388,-7.4978c3.86626,-0.23145 8.00634,0.46943 11.70308,-0.35859c2.03744,-2.95348 0.5607,-7.4489 1.01057,-11.0511c-0.47595,-3.41639 1.23877,-8.08458 -1.62996,-10.43172z"/>
   </g>
   <g stroke="None" fill-opacity="0.99" fill="#565657">
    <path stroke="null" d="m470.90308,260.88106c-11.81718,0.0489 -23.65066,-0.09454 -35.46132,0.07172c-6.06018,1.07251 -10.24916,7.5793 -10.17745,13.61991c0,23.68978 0,47.3763 0,71.06608c-1.51912,5.38863 4.60626,3.7163 7.82379,3.91189c2.9274,-0.69762 9.04626,1.94291 9.12775,-2.60793c0.14996,-7.83683 -0.30317,-15.83991 0.22819,-23.56916c2.69269,-1.99833 7.38696,-0.33251 10.85551,-0.88018c3.27621,0.7074 8.37471,-1.50608 10.45454,1.28115c0.70414,7.66731 0.10106,15.6867 0.30317,23.49419c0.47921,4.23137 6.51656,1.5126 9.45374,2.28194c3.29903,0.11084 8.98432,0.96167 7.4978,-4.23789c0,-15.75515 0,-31.51357 0,-47.26872c-1.28767,-12.56696 5.017,-32.27639 -10.10573,-37.163m-6.84582,20.21145c0,7.27938 0,14.56203 0,21.84141c-7.27938,0 -14.56203,0 -21.84141,0c0,-7.27938 0,-14.56203 0,-21.84141c7.27938,0 14.56203,0 21.84141,0z"/>
   </g>
   <g stroke="None" fill-opacity="0.98" fill="#565657">
    <path stroke="null" d="m546.20705,336.51101c-0.54115,-6.27859 -0.54441,-13.62969 0,-19.88546c-0.26405,-4.24115 -4.05859,-6.95991 -5.54185,-10.75771c0.43031,-4.20529 4.25744,-7.09683 5.21586,-11.0837c0,-0.54441 0,-1.08555 0,-1.62996c0,-6.19383 0,-12.38767 0,-18.5815c0,-0.75956 0,-1.52238 0,-2.28194c-0.6911,-7.38044 -7.80423,-12.95815 -15.32159,-11.40969c-13.04943,0.14996 -26.27163,-0.30317 -39.21674,0.22819c-2.41885,3.04802 -0.67154,8.22476 -1.20617,12.15947c0,22.05982 0,44.11639 0,66.17621c0.69762,3.27621 -2.11568,10.62731 3.25991,10.10573c13.14722,0 26.29771,0 39.44493,0c7.77489,1.42458 13.2385,-6.13515 13.36564,-13.03965m-15.64758,-56.07048c0,5.21586 0,10.43172 0,15.64758c-8.25736,0 -16.51797,0 -24.77533,0c0,-5.21586 0,-10.43172 0,-15.64758c8.25736,0 16.51797,0 24.77533,0m0,32.59912c0,5.76026 0,11.51727 0,17.27753c-8.25736,0 -16.51797,0 -24.77533,0c0,-5.76026 0,-11.51727 0,-17.27753c8.25736,0 16.51797,0 24.77533,0z"/>
   </g>
   <g stroke="None" fill-opacity="0.99" fill="#575758">
    <path stroke="null" d="m572.61233,326.40529c-0.00326,-0.02608 -0.32599,0 -0.32599,0c-0.75956,-2.72529 -0.11084,-8.03568 -0.32599,-11.73568c0.21841,-17.11454 -0.43357,-34.65938 0.32599,-51.50661c-0.62264,-4.20855 -6.74802,-1.52238 -9.77974,-2.28194c-3.7978,-0.44987 -8.81154,-0.37163 -7.17181,4.88987c0.163,27.70925 -0.32599,55.62388 0.24449,83.20925c3.42617,1.31374 7.72599,0.20211 11.49119,0.57048c7.93137,0 15.86599,0 23.79736,0c2.96652,-0.66176 9.5385,1.98529 9.12775,-2.93392c0,-4.01947 0,-8.0422 0,-12.06167c0.59982,-3.66414 0.0326,-8.34863 -4.88987,-6.84582c-4.01947,0 -8.0422,0 -12.06167,0c-3.25665,-0.72044 -8.43991,1.5289 -10.43172,-1.30396z"/>
   </g>
   <g stroke="None" fill-opacity="0.98" fill="#E47F1C">
    <path stroke="null" d="m640.74449,328.68723c-8.36819,0 -16.73313,0 -25.10132,0c-3.48159,0.10432 -9.80907,-1.39524 -8.47577,4.23789c0,4.13031 0,8.25736 0,12.38767c-1.4148,5.66899 5.0333,4.11401 8.47577,4.23789c4.13031,0 8.25736,0 12.38767,0c7.82705,-0.7237 16.50819,1.56802 23.71586,-1.38546c6.27207,-4.21507 6.29163,-12.19207 5.94934,-19.15198c0,-12.49524 0,-24.99374 0,-37.48899c-0.67806,-10.3111 3.23057,-24.71013 -7.80097,-30.01401c-11.96714,-1.43436 -24.62211,-0.23471 -36.85982,-0.62916c-4.86053,-1.44088 -6.97295,2.11894 -5.86784,6.51982c0.0163,4.22811 -0.0326,8.45947 0.02608,12.68758c1.90053,3.43269 7.3511,0.85736 10.73163,1.65604c4.23789,0 8.47577,0 12.71366,0c3.07084,0.95841 10.11877,-2.23956 10.10573,2.28194c0,4.13031 0,8.25736 0,12.38767c-8.47577,0 -16.95154,0 -25.42731,0c-5.24194,-0.90626 -3.20775,5.66247 -3.5859,8.80176c0.29991,3.26317 -1.5941,10.06987 3.91189,8.80176c8.36819,0 16.73313,0 25.10132,0c0,4.88987 0,9.77974 0,14.6696z"/>
   </g>
   <g stroke="None" fill-opacity="0.27" fill="#585858">
    <path stroke="null" d="m572.28634,326.40529c0,-20.97101 0,-41.94529 0,-62.9163c0,0 -0.01304,-0.163 0,-0.32599c-0.75956,16.84722 -0.10758,34.39207 -0.32599,51.50661c0.21515,3.7 -0.43357,9.0104 0.32599,11.73568z"/>
   </g>
   <g stroke="None" fill-opacity="0.01" fill="#808080">
    <path stroke="null" d="m572.28634,326.40529c0,0 0.32273,-0.02608 0.32599,0c-0.21515,-20.92211 0.43357,-42.23868 -0.32599,-62.9163c0,20.97101 0,41.94529 0,62.9163z"/>
   </g>
   <g stroke="None" fill="#8E4C21">
    <path stroke="null" d="m167.40528,272.61674c18.62714,0.03912 37.20537,0.25753 55.74449,0.65198c0.0815,-2.8133 -4.41718,-0.31621 -5.86784,-1.62996c-16.68749,0.14344 -33.27066,-0.13692 -49.87665,-0.32599c0,0.43357 0,0.8704 0,1.30396z"/>
   </g>
   <g stroke="None" fill="#B96429">
    <path stroke="null" d="m167.40528,272.61674c0,5.54185 0,11.0837 0,16.62555c18.82273,4.93551 37.33577,10.4741 56.07048,15.32159c0,-10.97612 0,-21.94899 0,-32.92511c-2.06352,0 -4.13031,0 -6.19383,0c1.45066,1.31374 5.94934,-1.18335 5.86784,1.62996c-18.53912,-0.39445 -37.11736,-0.61286 -55.74449,-0.65198z"/>
   </g>
   <g stroke="None" fill-opacity="0.01" fill="#7A7A7A">
    <path stroke="null" d="m545.88106,274.57269c0.54115,5.84502 0.54441,12.7593 0,18.5815c0,0.54441 0,1.08555 0,1.62996c1.10837,-6.96969 1.01709,-15.49762 0,-22.49339c0,0.75956 0,1.52238 0,2.28194z"/>
   </g>
   <g stroke="None" fill-opacity="0.27" fill="#5A5A5A">
    <path stroke="null" d="m545.88106,293.15419c0.54441,-5.8222 0.54115,-12.73648 0,-18.5815c0,6.19383 0,12.38767 0,18.5815z"/>
   </g>
   <g stroke="None" fill-opacity="0" fill="#000000">
    <path stroke="null" d="m530.55947,280.44053c-8.25736,0 -16.51797,0 -24.77533,0c0,5.21586 0,10.43172 0,15.64758c8.25736,0 16.51797,0 24.77533,0c0,-5.21586 0,-10.43172 0,-15.64758z"/>
   </g>
   <g stroke="None" fill-opacity="0" fill="#000000">
    <path stroke="null" d="m464.05727,281.09251c-7.27938,0 -14.56203,0 -21.84141,0c0,7.27938 0,14.56203 0,21.84141c7.27938,0 14.56203,0 21.84141,0c0,-7.27938 0,-14.56203 0,-21.84141z"/>
   </g>
   <g stroke="None" fill-opacity="0.25" fill="#635F57">
    <path stroke="null" d="m141.65198,300.32599c0,5.43427 0,10.86529 0,16.29956c0,0.163 0,0.32599 0,0.32599c0.0815,0.0815 0.32599,0 0.32599,0c0,-2.93392 0,-5.86784 0,-8.80176c-0.21189,-2.38626 0.42705,-6.41877 -0.32599,-7.82379z"/>
   </g>
   <g stroke="None" fill-opacity="0" fill="#000000">
    <path stroke="null" d="m530.55947,313.03965c-8.25736,0 -16.51797,0 -24.77533,0c0,5.76026 0,11.51727 0,17.27753c8.25736,0 16.51797,0 24.77533,0c0,-5.76026 0,-11.51727 0,-17.27753z"/>
   </g>
   <g stroke="None" fill-opacity="0.5" fill="#585858">
    <path stroke="null" d="m320.29515,314.6696c7.93137,0 15.86599,0 23.79736,0c-3.0741,-1.5126 -8.19868,-0.22493 -12.06167,-0.65198c-3.75216,0.42379 -8.77568,-0.8541 -11.73568,0.65198z"/>
   </g>
   <g stroke="None" fill-opacity="0.11" fill="#404040">
    <path stroke="null" d="m141.65198,335.53304c0,-6.19383 0,-12.38767 0,-18.5815c0,0 0,-0.163 0,-0.32599c-0.54441,5.92978 -0.54115,12.95489 0,18.90749z"/>
   </g>
   <g stroke="None" fill-opacity="0.26" fill="#59595A">
    <path stroke="null" d="m546.20705,336.51101c0,0 0,-0.163 0,-0.32599c0,-6.41225 0,-12.82123 0,-19.23348c0,0 0.00326,-0.163 0,-0.32599c-0.54441,6.25577 -0.54115,13.60687 0,19.88546z"/>
   </g>
   <g stroke="None" fill-opacity="0.58" fill="#43433E">
    <path stroke="null" d="m141.65198,335.53304c0,-0.01304 0.32599,0 0.32599,0c0,-6.08626 0,-12.16925 0,-18.25551c0,0 0,-0.163 0,-0.32599c0,0 -0.24449,0.0815 -0.32599,0c0,6.19383 0,12.38767 0,18.5815z"/>
   </g>
   <g stroke="None" fill-opacity="0.01" fill="#808080">
    <path stroke="null" d="m546.20705,336.18502c0.54441,-6.04062 0.54441,-13.17004 0,-19.23348c0,6.41225 0,12.82123 0,19.23348z"/>
   </g>
   <g stroke="None" fill="#47473F">
    <path stroke="null" d="m141.97797,335.53304c0,4.4563 0,8.90934 0,13.36564c8.48881,0.48899 17.00696,0.85736 25.42731,1.62996c0,-8.36819 0,-16.73313 0,-25.10132c-8.45621,-2.73833 -16.95806,-5.43101 -25.42731,-8.14978c0,6.08626 0,12.16925 0,18.25551z"/>
   </g>
   <g stroke="None" fill="#B8632A">
    <path stroke="null" d="m167.40528,350.52864c0,0.163 0,0.32599 0,0.32599c18.66952,0.73022 37.14018,2.24934 55.74449,3.25991c0,0.54441 0,1.08555 0,1.62996c0.42379,-3.66414 -0.577,-8.62573 0.32599,-12.38767c-18.70537,-5.62009 -37.37815,-12.03233 -56.07048,-17.92952c0,8.36819 0,16.73313 0,25.10132z"/>
   </g>
   <g stroke="None" fill-opacity="0.25" fill="#43433C">
    <path stroke="null" d="m141.65198,350.52864c0,0.00652 0.32599,0 0.32599,0c0,-0.54441 0,-1.08555 0,-1.62996c0,-4.4563 0,-8.90934 0,-13.36564c0,0 -0.32599,-0.01304 -0.32599,0c0,4.99744 0,9.99815 0,14.99559z"/>
   </g>
   <g stroke="None" fill="#F28723">
    <path stroke="null" d="m223.14978,355.74449c-18.62062,-1.03013 -37.07172,-2.74811 -55.74449,-3.5859c0,3.80432 0,7.60537 0,11.40969c0.75956,0 1.52238,0 2.28194,0c2.85568,0.09454 5.92978,0.163 8.47577,0.97797c19.11938,0.88996 37.92256,3.03824 57.04846,3.91189c0,-3.80432 0,-7.60537 0,-11.40969c-0.52811,-3.38705 1.13119,-7.82379 -0.97797,-10.43172c-3.6674,-0.84432 -7.19463,-2.1222 -10.75771,-3.25991c-0.903,3.76194 0.0978,8.72352 -0.32599,12.38767z"/>
   </g>
   <g stroke="None" fill="#AD753F">
    <path stroke="null" d="m235.21145,368.45815c0.163,0 0.32599,0 0.32599,0c0,-3.91189 0,-7.82379 0,-11.73568c-0.70414,-3.18493 1.50934,-8.11066 -1.30396,-10.10573c2.10916,2.60793 0.44987,7.04467 0.97797,10.43172c0,3.80432 0,7.60537 0,11.40969z"/>
   </g>
   <g stroke="None" fill="#23221E">
    <path stroke="null" d="m141.97797,350.52864c7.46846,0.5607 15.03797,0.70414 22.49339,1.30396c0,4.4563 0,8.90934 0,13.36564c23.66696,2.05374 47.33718,4.08141 71.06608,5.86784c0,-0.8704 0,-1.73753 0,-2.60793c0,0 -0.163,0 -0.32599,0c-19.1259,-0.87366 -37.92908,-3.02194 -57.04846,-3.91189c-2.80026,-0.30643 -5.87762,-0.35859 -8.47577,-0.97797c-0.75956,0 -1.52238,0 -2.28194,0c0,-3.80432 0,-7.60537 0,-11.40969c0,-0.43357 0,-0.8704 0,-1.30396c0,0 0,-0.163 0,-0.32599c-8.42035,-0.7726 -16.9385,-1.14097 -25.42731,-1.62996c0,0.54441 0,1.08555 0,1.62996z"/>
   </g>
   <g stroke="None" fill-opacity="0.18" fill="#676158">
    <path stroke="null" d="m141.65198,354.11454c-0.15974,-1.27137 0.5607,-2.3015 0.32599,-3.5859c0,0 -0.32599,0.00652 -0.32599,0c0.40423,1.23225 -0.88018,2.61119 0,3.5859z"/>
   </g>
   <g stroke="None" fill="#914E21">
    <path stroke="null" d="m167.40528,352.15859c18.67278,0.8378 37.12388,2.55577 55.74449,3.5859c0,-0.54441 0,-1.08555 0,-1.62996c-18.60432,-1.01057 -37.07498,-2.52969 -55.74449,-3.25991c0,0.43357 0,0.8704 0,1.30396z"/>
   </g>
   <g stroke="None" fill="#935821">
    <path stroke="null" d="m178.16299,364.54626c-2.54599,-0.81498 -5.62009,-0.88344 -8.47577,-0.97797c2.59815,0.61938 5.67551,0.67154 8.47577,0.97797z"/>
   </g>
   <g stroke="None" fill-opacity="0.58" fill="#676159">
    <path stroke="null" d="m148.1718,382.47577c0.59656,-0.7074 -0.45965,-1.24203 -0.97797,-1.62996c-0.15648,0.74326 0.34229,1.33656 0.97797,1.62996z"/>
   </g>
  </g>
 </g>
</svg>