<svg xmlns="http://www.w3.org/2000/svg" xmlns:v="https://svgstorm.com"
viewBox = "0 0 1589 604"
width="1589"
height="604">
<g fill="None" fill-opacity="0.0" stroke="#000000" stroke-opacity="0.00" stroke-width="0.3"><path d="
M 0.00 604.00 
L 1589.00 604.00
L 1589.00 0.00
L 0.00 0.00
L 0.00 604.00
M 486.00 110.00 
C 489.87 211.86 487.22 315.36 488.00 418.00 C 483.76 461.07 502.90 519.99 460.25 545.25 C 423.86 560.77 385.73 575.59 350.00 591.00
C 340.66 593.66 329.79 596.62 319.00 597.00
C 313.05 601.04 299.29 599.49 290.00 600.00 C 214.26 597.73 143.25 582.53 68.00 579.00 C 50.35 577.10 32.82 568.27 22.00 555.00
C 20.05 554.10 18.52 552.28 19.00 550.00
C 0.15 528.91 2.48 496.78 2.00 468.00
C -0.70 465.01 3.24 460.78 2.00 457.00
C 2.00 441.67 2.00 426.33 2.00 411.00
C 0.34 392.74 0.33 371.19 2.00 353.00
C 2.00 336.33 2.00 319.67 2.00 303.00
C -0.48 245.91 3.33 186.16 2.00 129.00
C -1.06 111.37 3.57 93.78 22.08 89.08 C 59.94 67.61 97.41 43.99 136.22 23.22 C 149.61 16.67 160.39 5.63 175.00 2.00 C 265.06 33.72 352.82 63.62 444.00 91.00 C 457.40 98.30 477.23 97.20 486.00 110.00
M 623.00 347.00 
C 598.67 347.00 574.33 347.00 550.00 347.00
C 509.60 338.22 518.40 287.71 518.00 255.00 C 518.28 231.69 513.69 203.12 535.70 188.70 C 556.49 174.97 587.11 185.14 612.00 182.00 C 625.67 182.00 639.33 182.00 653.00 182.00 C 671.89 177.10 666.50 198.58 667.00 210.00 C 663.86 220.59 674.17 243.06 660.00 245.00 C 632.33 245.00 604.67 245.00 577.00 245.00 C 558.88 240.96 564.87 263.13 564.00 274.00 C 558.56 292.13 576.59 291.18 589.00 290.00 C 612.73 293.39 643.91 281.30 661.25 300.75 C 684.73 331.63 669.74 375.83 674.00 413.00 C 672.72 434.64 656.18 459.35 631.00 454.00 C 603.33 454.00 575.67 454.00 548.00 454.00 C 537.61 451.82 514.62 460.99 518.00 443.00 C 518.00 429.00 518.00 415.00 518.00 401.00 C 517.04 384.12 539.51 393.33 550.00 391.00 C 563.67 391.00 577.33 391.00 591.00 391.00 C 602.03 388.01 622.87 397.59 626.99 384.99 C 624.78 372.80 631.73 356.26 623.00 347.00
M 844.00 182.00 
C 852.80 189.20 847.54 203.52 849.00 214.00 C 847.62 225.05 852.15 238.84 845.90 247.90 C 834.56 250.44 821.86 248.29 810.00 249.00 C 794.59 244.54 795.13 261.46 796.00 272.00 C 796.00 321.67 796.00 371.33 796.00 421.00 C 793.86 431.40 800.63 447.18 791.92 453.92 C 779.28 454.10 766.64 453.95 754.00 454.00 C 739.03 455.74 745.27 436.22 744.00 427.00 C 744.00 377.33 744.00 327.67 744.00 278.00 C 741.74 268.80 750.11 248.83 736.00 249.00 C 723.67 249.00 711.33 249.00 699.00 249.00 C 687.12 246.03 695.52 227.55 693.00 218.00 C 694.81 206.93 689.25 191.04 696.03 183.03 C 744.81 180.62 794.77 182.69 844.00 182.00
M 1012.00 182.00 
C 1058.39 196.99 1039.05 257.45 1043.00 296.00 C 1043.00 344.33 1043.00 392.67 1043.00 441.00 C 1047.56 456.95 1030.12 454.34 1020.00 454.00 C 1010.99 451.64 992.47 459.98 991.00 447.00 C 990.38 423.05 992.23 398.45 990.07 374.93 C 983.69 366.38 968.05 373.17 958.00 371.00 C 947.36 372.68 932.96 367.57 924.70 373.70 C 923.07 397.41 924.46 421.96 924.00 446.00 C 923.75 459.96 904.98 451.86 896.00 454.00 C 886.13 453.40 867.34 458.53 872.00 442.00 C 872.00 369.33 872.00 296.67 872.00 224.00 C 871.78 205.47 884.63 185.51 903.22 182.22 C 939.45 181.71 975.75 182.15 1012.00 182.00
M 1242.00 217.00 
C 1245.12 238.46 1245.40 264.62 1242.00 286.00
C 1239.06 298.23 1227.32 307.10 1226.00 320.00 C 1230.55 331.65 1242.19 339.99 1243.00 353.00
C 1243.01 353.50 1243.00 354.00 1243.00 354.00
C 1244.67 372.60 1244.67 394.47 1243.00 413.00
C 1243.00 413.50 1243.00 414.00 1243.00 414.00
C 1242.61 435.18 1225.85 458.37 1202.00 454.00 C 1161.67 454.00 1121.33 454.00 1081.00 454.00 C 1064.51 455.60 1073.14 433.05 1071.00 423.00 C 1071.00 355.33 1071.00 287.67 1071.00 220.00 C 1072.64 207.93 1067.28 192.05 1074.70 182.70 C 1114.41 181.07 1154.97 182.46 1195.00 182.00 C 1218.06 177.25 1239.88 194.36 1242.00 217.00
M 1323.00 189.00 
C 1322.96 189.50 1323.00 190.00 1323.00 190.00
C 1325.33 253.43 1323.34 318.82 1324.00 383.00
C 1330.11 391.69 1346.01 384.79 1356.00 387.00 C 1368.33 387.00 1380.67 387.00 1393.00 387.00 C 1408.10 382.39 1409.84 396.76 1408.00 408.00 C 1408.00 420.33 1408.00 432.67 1408.00 445.00 C 1409.26 460.09 1389.10 451.97 1380.00 454.00 C 1355.67 454.00 1331.33 454.00 1307.00 454.00 C 1295.45 452.87 1282.26 456.28 1271.75 452.25 C 1270.00 367.63 1271.50 282.00 1271.00 197.00 C 1265.97 180.86 1281.35 180.62 1293.00 182.00 C 1302.30 184.33 1321.09 176.09 1323.00 189.00
M 1533.00 390.00 
C 1533.00 375.00 1533.00 360.00 1533.00 345.00
C 1507.33 345.00 1481.67 345.00 1456.00 345.00 C 1439.11 348.89 1444.92 328.01 1444.00 318.00 C 1445.16 308.37 1438.92 288.22 1455.00 291.00 C 1481.00 291.00 1507.00 291.00 1533.00 291.00
C 1533.00 278.33 1533.00 265.67 1533.00 253.00 C 1533.04 239.13 1511.42 248.94 1502.00 246.00 C 1489.00 246.00 1476.00 246.00 1463.00 246.00 C 1452.63 243.55 1435.91 251.45 1430.08 240.92 C 1429.90 227.95 1430.05 214.97 1430.00 202.00 C 1426.61 188.50 1433.09 177.58 1448.00 182.00 C 1485.54 183.21 1524.36 179.53 1561.07 183.93 C 1594.91 200.20 1582.92 244.37 1585.00 276.00 C 1585.00 314.33 1585.00 352.67 1585.00 391.00 C 1586.05 412.35 1585.99 436.82 1566.75 449.75 C 1544.64 458.81 1518.01 451.78 1494.00 454.00 C 1481.33 454.00 1468.67 454.00 1456.00 454.00 C 1445.44 453.62 1425.66 458.39 1430.00 441.00 C 1430.00 428.33 1430.00 415.67 1430.00 403.00 C 1425.91 385.72 1445.32 390.32 1456.00 390.00 C 1481.67 390.00 1507.33 390.00 1533.00 390.00 Z"/>
</g>
<g fill="None" fill-opacity="0.0" stroke="#20201F" stroke-opacity="0.94" stroke-width="0.3"><path d="
M 2.00 129.00 
C 4.97 128.12 4.97 117.65 10.75 114.75 C 27.58 99.34 53.50 108.75 74.02 103.02 C 160.41 99.22 246.64 89.59 333.00 89.00 C 368.31 92.06 359.83 134.58 361.33 160.67 C 362.65 168.29 362.01 176.88 361.67 184.67 C 338.51 187.26 314.03 187.67 290.00 188.00
C 290.00 189.67 290.00 191.33 290.00 193.00
C 315.55 192.40 341.12 191.38 366.22 189.22 C 366.67 163.84 364.90 137.05 365.00 111.00 C 365.60 100.08 366.58 84.15 352.93 82.07 C 237.89 85.98 124.22 95.68 10.00 103.00
C 20.95 92.00 37.84 86.01 51.25 77.25 C 80.64 62.45 108.46 44.61 137.01 29.01 C 151.54 21.94 165.29 5.23 182.22 9.78 C 281.66 48.27 384.62 78.52 486.00 110.00
C 477.23 97.20 457.40 98.30 444.00 91.00 C 352.82 63.62 265.06 33.72 175.00 2.00 C 160.39 5.63 149.61 16.67 136.22 23.22 C 97.41 43.99 59.94 67.61 22.08 89.08 C 3.57 93.78 -1.06 111.37 2.00 129.00 Z"/>
</g>
<g fill="None" fill-opacity="0.0" stroke="#474740" stroke-opacity="1.00" stroke-width="0.3"><path d="
M 290.00 193.00 
C 289.33 253.17 291.33 314.65 289.00 374.00
C 312.11 379.94 335.45 387.37 359.02 391.98 C 372.91 396.73 363.03 417.20 366.00 429.00 C 366.00 473.33 366.00 517.67 366.00 562.00 C 366.14 574.23 359.10 584.80 350.00 591.00
C 385.73 575.59 423.86 560.77 460.25 545.25 C 502.90 519.99 483.76 461.07 488.00 418.00 C 487.22 315.36 489.87 211.86 486.00 110.00
C 384.62 78.52 281.66 48.27 182.22 9.78 C 165.29 5.23 151.54 21.94 137.01 29.01 C 108.46 44.61 80.64 62.45 51.25 77.25 C 37.84 86.01 20.95 92.00 10.00 103.00
C 124.22 95.68 237.89 85.98 352.93 82.07 C 366.58 84.15 365.60 100.08 365.00 111.00 C 364.90 137.05 366.67 163.84 366.22 189.22 C 341.12 191.38 315.55 192.40 290.00 193.00 Z"/>
</g>
<g fill="None" fill-opacity="0.0" stroke="#646058" stroke-opacity="1.00" stroke-width="0.3"><path d="
M 2.00 129.00 
C 3.33 186.16 -0.48 245.91 2.00 303.00
C 4.31 307.31 2.35 319.68 3.00 327.00 C 3.00 336.00 3.00 345.00 3.00 354.00
C 3.00 354.50 3.00 355.00 3.00 355.00
C 28.98 363.34 55.06 371.60 81.00 380.00
C 138.34 398.09 195.62 417.76 253.00 435.00
C 263.93 438.49 274.75 442.41 286.00 445.00
C 294.63 451.12 287.84 466.23 290.00 476.00 C 290.00 488.00 290.00 500.00 290.00 512.00
C 290.00 514.67 290.00 517.33 290.00 520.00
C 217.21 514.52 144.60 508.30 72.00 502.00
C 72.00 488.33 72.00 474.67 72.00 461.00
C 49.13 459.16 25.91 458.72 3.00 457.00
C 3.72 460.94 1.51 464.10 2.00 468.00
C 2.48 496.78 0.15 528.91 19.00 550.00
C 20.59 551.19 23.83 552.83 22.00 555.00
C 32.82 568.27 50.35 577.10 68.00 579.00 C 143.25 582.53 214.26 597.73 290.00 600.00 C 299.29 599.49 313.05 601.04 319.00 597.00
C 338.94 586.66 357.35 568.32 360.00 545.00 C 360.09 498.27 359.51 451.38 361.00 405.00 C 354.87 395.28 337.77 397.43 327.78 391.22 C 241.70 369.29 157.55 341.25 72.00 318.00
C 72.00 267.00 72.00 216.00 72.00 165.00
C 144.60 163.76 216.11 158.11 289.00 158.00
C 289.00 160.00 289.00 162.00 289.00 164.00
C 289.00 168.00 289.00 172.00 289.00 176.00
C 291.19 179.09 289.43 184.16 290.00 188.00
C 314.03 187.67 338.51 187.26 361.67 184.67 C 362.01 176.88 362.65 168.29 361.33 160.67 C 359.83 134.58 368.31 92.06 333.00 89.00 C 246.64 89.59 160.41 99.22 74.02 103.02 C 53.50 108.75 27.58 99.34 10.75 114.75 C 4.97 117.65 4.97 128.12 2.00 129.00 Z"/>
</g>
<g fill="None" fill-opacity="0.0" stroke="#1E1E1D" stroke-opacity="1.00" stroke-width="0.3"><path d="
M 319.00 597.00 
C 329.79 596.62 340.66 593.66 350.00 591.00
C 359.10 584.80 366.14 574.23 366.00 562.00 C 366.00 517.67 366.00 473.33 366.00 429.00 C 363.03 417.20 372.91 396.73 359.02 391.98 C 335.45 387.37 312.11 379.94 289.00 374.00
C 219.41 354.17 150.75 332.36 81.00 313.00
C 79.33 266.40 79.33 216.53 81.00 170.00
C 150.54 168.82 219.47 165.22 289.00 164.00
C 289.00 162.00 289.00 160.00 289.00 158.00
C 216.11 158.11 144.60 163.76 72.00 165.00
C 72.00 216.00 72.00 267.00 72.00 318.00
C 157.55 341.25 241.70 369.29 327.78 391.22 C 337.77 397.43 354.87 395.28 361.00 405.00 C 359.51 451.38 360.09 498.27 360.00 545.00 C 357.35 568.32 338.94 586.66 319.00 597.00 Z"/>
</g>
<g fill="None" fill-opacity="0.0" stroke="#F38723" stroke-opacity="1.00" stroke-width="0.3"><path d="
M 81.00 170.00 
C 81.00 184.67 81.00 199.33 81.00 214.00
C 131.94 214.58 182.81 215.44 234.00 215.00
C 240.33 215.00 246.67 215.00 253.00 215.00
C 253.00 248.67 253.00 282.33 253.00 316.00
C 195.53 301.13 138.74 284.14 81.00 269.00
C 81.00 283.67 81.00 298.33 81.00 313.00
C 150.75 332.36 219.41 354.17 289.00 374.00
C 289.00 308.00 289.00 242.00 289.00 176.00
C 289.00 172.00 289.00 168.00 289.00 164.00
C 219.47 165.22 150.54 168.82 81.00 170.00 Z"/>
</g>
<g fill="None" fill-opacity="0.0" stroke="#4B331D" stroke-opacity="1.00" stroke-width="0.3"><path d="
M 81.00 313.00 
C 81.00 298.33 81.00 283.67 81.00 269.00
C 81.00 252.00 81.00 235.00 81.00 218.00
C 81.00 216.67 81.00 215.33 81.00 214.00
C 81.00 199.33 81.00 184.67 81.00 170.00
C 79.33 216.53 79.33 266.40 81.00 313.00 Z"/>
</g>
<g fill="None" fill-opacity="0.0" stroke="#9E6833" stroke-opacity="1.00" stroke-width="0.3"><path d="
M 289.00 374.00 
C 291.33 314.65 289.33 253.17 290.00 193.00
C 290.00 191.33 290.00 189.67 290.00 188.00
C 289.43 184.16 291.19 179.09 289.00 176.00
C 289.00 242.00 289.00 308.00 289.00 374.00 Z"/>
</g>
<g fill="None" fill-opacity="0.0" stroke="#565657" stroke-opacity="0.98" stroke-width="0.3"><path d="
M 550.00 347.00 
C 559.08 342.38 574.49 346.30 586.00 345.00 C 597.85 346.31 613.57 342.36 623.00 347.00
C 631.73 356.26 624.78 372.80 626.99 384.99 C 622.87 397.59 602.03 388.01 591.00 391.00 C 577.33 391.00 563.67 391.00 550.00 391.00 C 539.51 393.33 517.04 384.12 518.00 401.00 C 518.00 415.00 518.00 429.00 518.00 443.00 C 514.62 460.99 537.61 451.82 548.00 454.00 C 575.67 454.00 603.33 454.00 631.00 454.00 C 656.18 459.35 672.72 434.64 674.00 413.00 C 669.74 375.83 684.73 331.63 661.25 300.75 C 643.91 281.30 612.73 293.39 589.00 290.00 C 576.59 291.18 558.56 292.13 564.00 274.00 C 564.87 263.13 558.88 240.96 577.00 245.00 C 604.67 245.00 632.33 245.00 660.00 245.00 C 674.17 243.06 663.86 220.59 667.00 210.00 C 666.50 198.58 671.89 177.10 653.00 182.00 C 639.33 182.00 625.67 182.00 612.00 182.00 C 587.11 185.14 556.49 174.97 535.70 188.70 C 513.69 203.12 518.28 231.69 518.00 255.00 C 518.40 287.71 509.60 338.22 550.00 347.00 Z"/>
</g>
<g fill="None" fill-opacity="0.0" stroke="#565657" stroke-opacity="0.98" stroke-width="0.3"><path d="
M 844.00 182.00 
C 794.77 182.69 744.81 180.62 696.03 183.03 C 689.25 191.04 694.81 206.93 693.00 218.00 C 695.52 227.55 687.12 246.03 699.00 249.00 C 711.33 249.00 723.67 249.00 736.00 249.00 C 750.11 248.83 741.74 268.80 744.00 278.00 C 744.00 327.67 744.00 377.33 744.00 427.00 C 745.27 436.22 739.03 455.74 754.00 454.00 C 766.64 453.95 779.28 454.10 791.92 453.92 C 800.63 447.18 793.86 431.40 796.00 421.00 C 796.00 371.33 796.00 321.67 796.00 272.00 C 795.13 261.46 794.59 244.54 810.00 249.00 C 821.86 248.29 834.56 250.44 845.90 247.90 C 852.15 238.84 847.62 225.05 849.00 214.00 C 847.54 203.52 852.80 189.20 844.00 182.00 Z"/>
</g>
<g fill="None" fill-opacity="0.0" stroke="#565657" stroke-opacity="0.99" stroke-width="0.3"><path d="
M 1012.00 182.00 
C 975.75 182.15 939.45 181.71 903.22 182.22 C 884.63 185.51 871.78 205.47 872.00 224.00 C 872.00 296.67 872.00 369.33 872.00 442.00 C 867.34 458.53 886.13 453.40 896.00 454.00 C 904.98 451.86 923.75 459.96 924.00 446.00 C 924.46 421.96 923.07 397.41 924.70 373.70 C 932.96 367.57 947.36 372.68 958.00 371.00 C 968.05 373.17 983.69 366.38 990.07 374.93 C 992.23 398.45 990.38 423.05 991.00 447.00 C 992.47 459.98 1010.99 451.64 1020.00 454.00 C 1030.12 454.34 1047.56 456.95 1043.00 441.00 C 1043.00 392.67 1043.00 344.33 1043.00 296.00 C 1039.05 257.45 1058.39 196.99 1012.00 182.00
M 991.00 244.00 
C 991.00 266.33 991.00 288.67 991.00 311.00
C 968.67 311.00 946.33 311.00 924.00 311.00
C 924.00 288.67 924.00 266.33 924.00 244.00
C 946.33 244.00 968.67 244.00 991.00 244.00 Z"/>
</g>
<g fill="None" fill-opacity="0.0" stroke="#565657" stroke-opacity="0.98" stroke-width="0.3"><path d="
M 1243.00 414.00 
C 1241.34 394.74 1241.33 372.19 1243.00 353.00
C 1242.19 339.99 1230.55 331.65 1226.00 320.00 C 1227.32 307.10 1239.06 298.23 1242.00 286.00
C 1242.00 284.33 1242.00 282.67 1242.00 281.00
C 1242.00 262.00 1242.00 243.00 1242.00 224.00
C 1242.00 221.67 1242.00 219.33 1242.00 217.00
C 1239.88 194.36 1218.06 177.25 1195.00 182.00 C 1154.97 182.46 1114.41 181.07 1074.70 182.70 C 1067.28 192.05 1072.64 207.93 1071.00 220.00 C 1071.00 287.67 1071.00 355.33 1071.00 423.00 C 1073.14 433.05 1064.51 455.60 1081.00 454.00 C 1121.33 454.00 1161.67 454.00 1202.00 454.00 C 1225.85 458.37 1242.61 435.18 1243.00 414.00
M 1195.00 242.00 
C 1195.00 258.00 1195.00 274.00 1195.00 290.00
C 1169.67 290.00 1144.33 290.00 1119.00 290.00
C 1119.00 274.00 1119.00 258.00 1119.00 242.00
C 1144.33 242.00 1169.67 242.00 1195.00 242.00
M 1195.00 342.00 
C 1195.00 359.67 1195.00 377.33 1195.00 395.00
C 1169.67 395.00 1144.33 395.00 1119.00 395.00
C 1119.00 377.33 1119.00 359.67 1119.00 342.00
C 1144.33 342.00 1169.67 342.00 1195.00 342.00 Z"/>
</g>
<g fill="None" fill-opacity="0.0" stroke="#575758" stroke-opacity="0.99" stroke-width="0.3"><path d="
M 1324.00 383.00 
C 1323.99 382.92 1323.00 383.00 1323.00 383.00
C 1320.67 374.64 1322.66 358.35 1322.00 347.00 C 1322.67 294.50 1320.67 240.68 1323.00 189.00
C 1321.09 176.09 1302.30 184.33 1293.00 182.00 C 1281.35 180.62 1265.97 180.86 1271.00 197.00 C 1271.50 282.00 1270.00 367.63 1271.75 452.25 C 1282.26 456.28 1295.45 452.87 1307.00 454.00 C 1331.33 454.00 1355.67 454.00 1380.00 454.00 C 1389.10 451.97 1409.26 460.09 1408.00 445.00 C 1408.00 432.67 1408.00 420.33 1408.00 408.00 C 1409.84 396.76 1408.10 382.39 1393.00 387.00 C 1380.67 387.00 1368.33 387.00 1356.00 387.00 C 1346.01 384.79 1330.11 391.69 1324.00 383.00 Z"/>
</g>
<g fill="None" fill-opacity="0.0" stroke="#E47F1C" stroke-opacity="0.98" stroke-width="0.3"><path d="
M 1533.00 390.00 
C 1507.33 390.00 1481.67 390.00 1456.00 390.00 C 1445.32 390.32 1425.91 385.72 1430.00 403.00 C 1430.00 415.67 1430.00 428.33 1430.00 441.00 C 1425.66 458.39 1445.44 453.62 1456.00 454.00 C 1468.67 454.00 1481.33 454.00 1494.00 454.00 C 1518.01 451.78 1544.64 458.81 1566.75 449.75 C 1585.99 436.82 1586.05 412.35 1585.00 391.00 C 1585.00 352.67 1585.00 314.33 1585.00 276.00 C 1582.92 244.37 1594.91 200.20 1561.07 183.93 C 1524.36 179.53 1485.54 183.21 1448.00 182.00 C 1433.09 177.58 1426.61 188.50 1430.00 202.00 C 1430.05 214.97 1429.90 227.95 1430.08 240.92 C 1435.91 251.45 1452.63 243.55 1463.00 246.00 C 1476.00 246.00 1489.00 246.00 1502.00 246.00 C 1511.42 248.94 1533.04 239.13 1533.00 253.00 C 1533.00 265.67 1533.00 278.33 1533.00 291.00
C 1507.00 291.00 1481.00 291.00 1455.00 291.00 C 1438.92 288.22 1445.16 308.37 1444.00 318.00 C 1444.92 328.01 1439.11 348.89 1456.00 345.00 C 1481.67 345.00 1507.33 345.00 1533.00 345.00
C 1533.00 360.00 1533.00 375.00 1533.00 390.00 Z"/>
</g>
<g fill="None" fill-opacity="0.0" stroke="#585858" stroke-opacity="0.27" stroke-width="0.3"><path d="
M 1323.00 383.00 
C 1323.00 318.67 1323.00 254.33 1323.00 190.00
C 1323.00 190.00 1322.96 189.50 1323.00 189.00
C 1320.67 240.68 1322.67 294.50 1322.00 347.00 C 1322.66 358.35 1320.67 374.64 1323.00 383.00 Z"/>
</g>
<g fill="None" fill-opacity="0.0" stroke="#808080" stroke-opacity="0.01" stroke-width="0.3"><path d="
M 1323.00 383.00 
C 1323.00 383.00 1323.99 382.92 1324.00 383.00
C 1323.34 318.82 1325.33 253.43 1323.00 190.00
C 1323.00 254.33 1323.00 318.67 1323.00 383.00 Z"/>
</g>
<g fill="None" fill-opacity="0.0" stroke="#8E4C21" stroke-opacity="1.00" stroke-width="0.3"><path d="
M 81.00 218.00 
C 138.14 218.12 195.13 218.79 252.00 220.00
C 252.25 211.37 238.45 219.03 234.00 215.00
C 182.81 215.44 131.94 214.58 81.00 214.00
C 81.00 215.33 81.00 216.67 81.00 218.00 Z"/>
</g>
<g fill="None" fill-opacity="0.0" stroke="#B96429" stroke-opacity="1.00" stroke-width="0.3"><path d="
M 81.00 218.00 
C 81.00 235.00 81.00 252.00 81.00 269.00
C 138.74 284.14 195.53 301.13 253.00 316.00
C 253.00 282.33 253.00 248.67 253.00 215.00
C 246.67 215.00 240.33 215.00 234.00 215.00
C 238.45 219.03 252.25 211.37 252.00 220.00
C 195.13 218.79 138.14 218.12 81.00 218.00 Z"/>
</g>
<g fill="None" fill-opacity="0.0" stroke="#7A7A7A" stroke-opacity="0.01" stroke-width="0.3"><path d="
M 1242.00 224.00 
C 1243.66 241.93 1243.67 263.14 1242.00 281.00
C 1242.00 282.67 1242.00 284.33 1242.00 286.00
C 1245.40 264.62 1245.12 238.46 1242.00 217.00
C 1242.00 219.33 1242.00 221.67 1242.00 224.00 Z"/>
</g>
<g fill="None" fill-opacity="0.0" stroke="#5A5A5A" stroke-opacity="0.27" stroke-width="0.3"><path d="
M 1242.00 281.00 
C 1243.67 263.14 1243.66 241.93 1242.00 224.00
C 1242.00 243.00 1242.00 262.00 1242.00 281.00 Z"/>
</g>
<g fill="None" fill-opacity="0.0" stroke="#000000" stroke-opacity="0.00" stroke-width="0.3"><path d="
M 1195.00 242.00 
C 1169.67 242.00 1144.33 242.00 1119.00 242.00
C 1119.00 258.00 1119.00 274.00 1119.00 290.00
C 1144.33 290.00 1169.67 290.00 1195.00 290.00
C 1195.00 274.00 1195.00 258.00 1195.00 242.00 Z"/>
</g>
<g fill="None" fill-opacity="0.0" stroke="#000000" stroke-opacity="0.00" stroke-width="0.3"><path d="
M 991.00 244.00 
C 968.67 244.00 946.33 244.00 924.00 244.00
C 924.00 266.33 924.00 288.67 924.00 311.00
C 946.33 311.00 968.67 311.00 991.00 311.00
C 991.00 288.67 991.00 266.33 991.00 244.00 Z"/>
</g>
<g fill="None" fill-opacity="0.0" stroke="#635F57" stroke-opacity="0.25" stroke-width="0.3"><path d="
M 2.00 303.00 
C 2.00 319.67 2.00 336.33 2.00 353.00
C 2.00 353.50 2.00 354.00 2.00 354.00
C 2.25 354.25 3.00 354.00 3.00 354.00
C 3.00 345.00 3.00 336.00 3.00 327.00 C 2.35 319.68 4.31 307.31 2.00 303.00 Z"/>
</g>
<g fill="None" fill-opacity="0.0" stroke="#000000" stroke-opacity="0.00" stroke-width="0.3"><path d="
M 1195.00 342.00 
C 1169.67 342.00 1144.33 342.00 1119.00 342.00
C 1119.00 359.67 1119.00 377.33 1119.00 395.00
C 1144.33 395.00 1169.67 395.00 1195.00 395.00
C 1195.00 377.33 1195.00 359.67 1195.00 342.00 Z"/>
</g>
<g fill="None" fill-opacity="0.0" stroke="#585858" stroke-opacity="0.50" stroke-width="0.3"><path d="
M 550.00 347.00 
C 574.33 347.00 598.67 347.00 623.00 347.00
C 613.57 342.36 597.85 346.31 586.00 345.00 C 574.49 346.30 559.08 342.38 550.00 347.00 Z"/>
</g>
<g fill="None" fill-opacity="0.0" stroke="#404040" stroke-opacity="0.11" stroke-width="0.3"><path d="
M 2.00 411.00 
C 2.00 392.00 2.00 373.00 2.00 354.00
C 2.00 354.00 2.00 353.50 2.00 353.00
C 0.33 371.19 0.34 392.74 2.00 411.00 Z"/>
</g>
<g fill="None" fill-opacity="0.0" stroke="#59595A" stroke-opacity="0.26" stroke-width="0.3"><path d="
M 1243.00 414.00 
C 1243.00 414.00 1243.00 413.50 1243.00 413.00
C 1243.00 393.33 1243.00 373.67 1243.00 354.00
C 1243.00 354.00 1243.01 353.50 1243.00 353.00
C 1241.33 372.19 1241.34 394.74 1243.00 414.00 Z"/>
</g>
<g fill="None" fill-opacity="0.0" stroke="#43433E" stroke-opacity="0.58" stroke-width="0.3"><path d="
M 2.00 411.00 
C 2.00 410.96 3.00 411.00 3.00 411.00
C 3.00 392.33 3.00 373.67 3.00 355.00
C 3.00 355.00 3.00 354.50 3.00 354.00
C 3.00 354.00 2.25 354.25 2.00 354.00
C 2.00 373.00 2.00 392.00 2.00 411.00 Z"/>
</g>
<g fill="None" fill-opacity="0.0" stroke="#808080" stroke-opacity="0.01" stroke-width="0.3"><path d="
M 1243.00 413.00 
C 1244.67 394.47 1244.67 372.60 1243.00 354.00
C 1243.00 373.67 1243.00 393.33 1243.00 413.00 Z"/>
</g>
<g fill="None" fill-opacity="0.0" stroke="#47473F" stroke-opacity="1.00" stroke-width="0.3"><path d="
M 3.00 411.00 
C 3.00 424.67 3.00 438.33 3.00 452.00
C 29.04 453.50 55.17 454.63 81.00 457.00
C 81.00 431.33 81.00 405.67 81.00 380.00
C 55.06 371.60 28.98 363.34 3.00 355.00
C 3.00 373.67 3.00 392.33 3.00 411.00 Z"/>
</g>
<g fill="None" fill-opacity="0.0" stroke="#B8632A" stroke-opacity="1.00" stroke-width="0.3"><path d="
M 81.00 457.00 
C 81.00 457.50 81.00 458.00 81.00 458.00
C 138.27 460.24 194.93 464.90 252.00 468.00
C 252.00 469.67 252.00 471.33 252.00 473.00
C 253.30 461.76 250.23 446.54 253.00 435.00
C 195.62 417.76 138.34 398.09 81.00 380.00
C 81.00 405.67 81.00 431.33 81.00 457.00 Z"/>
</g>
<g fill="None" fill-opacity="0.0" stroke="#43433C" stroke-opacity="0.25" stroke-width="0.3"><path d="
M 2.00 457.00 
C 2.00 457.02 3.00 457.00 3.00 457.00
C 3.00 455.33 3.00 453.67 3.00 452.00
C 3.00 438.33 3.00 424.67 3.00 411.00
C 3.00 411.00 2.00 410.96 2.00 411.00
C 2.00 426.33 2.00 441.67 2.00 457.00 Z"/>
</g>
<g fill="None" fill-opacity="0.0" stroke="#F28723" stroke-opacity="1.00" stroke-width="0.3"><path d="
M 252.00 473.00 
C 194.88 469.84 138.28 464.57 81.00 462.00
C 81.00 473.67 81.00 485.33 81.00 497.00
C 83.33 497.00 85.67 497.00 88.00 497.00
C 96.76 497.29 106.19 497.50 114.00 500.00
C 172.65 502.73 230.33 509.32 289.00 512.00
C 289.00 500.33 289.00 488.67 289.00 477.00 C 287.38 466.61 292.47 453.00 286.00 445.00
C 274.75 442.41 263.93 438.49 253.00 435.00
C 250.23 446.54 253.30 461.76 252.00 473.00 Z"/>
</g>
<g fill="None" fill-opacity="0.0" stroke="#AD753F" stroke-opacity="1.00" stroke-width="0.3"><path d="
M 289.00 512.00 
C 289.50 512.00 290.00 512.00 290.00 512.00
C 290.00 500.00 290.00 488.00 290.00 476.00 C 287.84 466.23 294.63 451.12 286.00 445.00
C 292.47 453.00 287.38 466.61 289.00 477.00 C 289.00 488.67 289.00 500.33 289.00 512.00 Z"/>
</g>
<g fill="None" fill-opacity="0.0" stroke="#23221E" stroke-opacity="1.00" stroke-width="0.3"><path d="
M 3.00 457.00 
C 25.91 458.72 49.13 459.16 72.00 461.00
C 72.00 474.67 72.00 488.33 72.00 502.00
C 144.60 508.30 217.21 514.52 290.00 520.00
C 290.00 517.33 290.00 514.67 290.00 512.00
C 290.00 512.00 289.50 512.00 289.00 512.00
C 230.33 509.32 172.65 502.73 114.00 500.00
C 105.41 499.06 95.97 498.90 88.00 497.00
C 85.67 497.00 83.33 497.00 81.00 497.00
C 81.00 485.33 81.00 473.67 81.00 462.00
C 81.00 460.67 81.00 459.33 81.00 458.00
C 81.00 458.00 81.00 457.50 81.00 457.00
C 55.17 454.63 29.04 453.50 3.00 452.00
C 3.00 453.67 3.00 455.33 3.00 457.00 Z"/>
</g>
<g fill="None" fill-opacity="0.0" stroke="#676158" stroke-opacity="0.18" stroke-width="0.3"><path d="
M 2.00 468.00 
C 1.51 464.10 3.72 460.94 3.00 457.00
C 3.00 457.00 2.00 457.02 2.00 457.00
C 3.24 460.78 -0.70 465.01 2.00 468.00 Z"/>
</g>
<g fill="None" fill-opacity="0.0" stroke="#914E21" stroke-opacity="1.00" stroke-width="0.3"><path d="
M 81.00 462.00 
C 138.28 464.57 194.88 469.84 252.00 473.00
C 252.00 471.33 252.00 469.67 252.00 468.00
C 194.93 464.90 138.27 460.24 81.00 458.00
C 81.00 459.33 81.00 460.67 81.00 462.00 Z"/>
</g>
<g fill="None" fill-opacity="0.0" stroke="#935821" stroke-opacity="1.00" stroke-width="0.3"><path d="
M 114.00 500.00 
C 106.19 497.50 96.76 497.29 88.00 497.00
C 95.97 498.90 105.41 499.06 114.00 500.00 Z"/>
</g>
<g fill="None" fill-opacity="0.0" stroke="#676159" stroke-opacity="0.58" stroke-width="0.3"><path d="
M 22.00 555.00 
C 23.83 552.83 20.59 551.19 19.00 550.00
C 18.52 552.28 20.05 554.10 22.00 555.00 Z"/>
</g>
<g fill="#000000" fill-opacity="0.00" stroke="None"><path d="
M 0.00 604.00 
L 1589.00 604.00
L 1589.00 0.00
L 0.00 0.00
L 0.00 604.00
M 486.00 110.00 
C 489.87 211.86 487.22 315.36 488.00 418.00 C 483.76 461.07 502.90 519.99 460.25 545.25 C 423.86 560.77 385.73 575.59 350.00 591.00
C 340.66 593.66 329.79 596.62 319.00 597.00
C 313.05 601.04 299.29 599.49 290.00 600.00 C 214.26 597.73 143.25 582.53 68.00 579.00 C 50.35 577.10 32.82 568.27 22.00 555.00
C 20.05 554.10 18.52 552.28 19.00 550.00
C 0.15 528.91 2.48 496.78 2.00 468.00
C -0.70 465.01 3.24 460.78 2.00 457.00
C 2.00 441.67 2.00 426.33 2.00 411.00
C 0.34 392.74 0.33 371.19 2.00 353.00
C 2.00 336.33 2.00 319.67 2.00 303.00
C -0.48 245.91 3.33 186.16 2.00 129.00
C -1.06 111.37 3.57 93.78 22.08 89.08 C 59.94 67.61 97.41 43.99 136.22 23.22 C 149.61 16.67 160.39 5.63 175.00 2.00 C 265.06 33.72 352.82 63.62 444.00 91.00 C 457.40 98.30 477.23 97.20 486.00 110.00
M 623.00 347.00 
C 598.67 347.00 574.33 347.00 550.00 347.00
C 509.60 338.22 518.40 287.71 518.00 255.00 C 518.28 231.69 513.69 203.12 535.70 188.70 C 556.49 174.97 587.11 185.14 612.00 182.00 C 625.67 182.00 639.33 182.00 653.00 182.00 C 671.89 177.10 666.50 198.58 667.00 210.00 C 663.86 220.59 674.17 243.06 660.00 245.00 C 632.33 245.00 604.67 245.00 577.00 245.00 C 558.88 240.96 564.87 263.13 564.00 274.00 C 558.56 292.13 576.59 291.18 589.00 290.00 C 612.73 293.39 643.91 281.30 661.25 300.75 C 684.73 331.63 669.74 375.83 674.00 413.00 C 672.72 434.64 656.18 459.35 631.00 454.00 C 603.33 454.00 575.67 454.00 548.00 454.00 C 537.61 451.82 514.62 460.99 518.00 443.00 C 518.00 429.00 518.00 415.00 518.00 401.00 C 517.04 384.12 539.51 393.33 550.00 391.00 C 563.67 391.00 577.33 391.00 591.00 391.00 C 602.03 388.01 622.87 397.59 626.99 384.99 C 624.78 372.80 631.73 356.26 623.00 347.00
M 844.00 182.00 
C 852.80 189.20 847.54 203.52 849.00 214.00 C 847.62 225.05 852.15 238.84 845.90 247.90 C 834.56 250.44 821.86 248.29 810.00 249.00 C 794.59 244.54 795.13 261.46 796.00 272.00 C 796.00 321.67 796.00 371.33 796.00 421.00 C 793.86 431.40 800.63 447.18 791.92 453.92 C 779.28 454.10 766.64 453.95 754.00 454.00 C 739.03 455.74 745.27 436.22 744.00 427.00 C 744.00 377.33 744.00 327.67 744.00 278.00 C 741.74 268.80 750.11 248.83 736.00 249.00 C 723.67 249.00 711.33 249.00 699.00 249.00 C 687.12 246.03 695.52 227.55 693.00 218.00 C 694.81 206.93 689.25 191.04 696.03 183.03 C 744.81 180.62 794.77 182.69 844.00 182.00
M 1012.00 182.00 
C 1058.39 196.99 1039.05 257.45 1043.00 296.00 C 1043.00 344.33 1043.00 392.67 1043.00 441.00 C 1047.56 456.95 1030.12 454.34 1020.00 454.00 C 1010.99 451.64 992.47 459.98 991.00 447.00 C 990.38 423.05 992.23 398.45 990.07 374.93 C 983.69 366.38 968.05 373.17 958.00 371.00 C 947.36 372.68 932.96 367.57 924.70 373.70 C 923.07 397.41 924.46 421.96 924.00 446.00 C 923.75 459.96 904.98 451.86 896.00 454.00 C 886.13 453.40 867.34 458.53 872.00 442.00 C 872.00 369.33 872.00 296.67 872.00 224.00 C 871.78 205.47 884.63 185.51 903.22 182.22 C 939.45 181.71 975.75 182.15 1012.00 182.00
M 1242.00 217.00 
C 1245.12 238.46 1245.40 264.62 1242.00 286.00
C 1239.06 298.23 1227.32 307.10 1226.00 320.00 C 1230.55 331.65 1242.19 339.99 1243.00 353.00
C 1243.01 353.50 1243.00 354.00 1243.00 354.00
C 1244.67 372.60 1244.67 394.47 1243.00 413.00
C 1243.00 413.50 1243.00 414.00 1243.00 414.00
C 1242.61 435.18 1225.85 458.37 1202.00 454.00 C 1161.67 454.00 1121.33 454.00 1081.00 454.00 C 1064.51 455.60 1073.14 433.05 1071.00 423.00 C 1071.00 355.33 1071.00 287.67 1071.00 220.00 C 1072.64 207.93 1067.28 192.05 1074.70 182.70 C 1114.41 181.07 1154.97 182.46 1195.00 182.00 C 1218.06 177.25 1239.88 194.36 1242.00 217.00
M 1323.00 189.00 
C 1322.96 189.50 1323.00 190.00 1323.00 190.00
C 1325.33 253.43 1323.34 318.82 1324.00 383.00
C 1330.11 391.69 1346.01 384.79 1356.00 387.00 C 1368.33 387.00 1380.67 387.00 1393.00 387.00 C 1408.10 382.39 1409.84 396.76 1408.00 408.00 C 1408.00 420.33 1408.00 432.67 1408.00 445.00 C 1409.26 460.09 1389.10 451.97 1380.00 454.00 C 1355.67 454.00 1331.33 454.00 1307.00 454.00 C 1295.45 452.87 1282.26 456.28 1271.75 452.25 C 1270.00 367.63 1271.50 282.00 1271.00 197.00 C 1265.97 180.86 1281.35 180.62 1293.00 182.00 C 1302.30 184.33 1321.09 176.09 1323.00 189.00
M 1533.00 390.00 
C 1533.00 375.00 1533.00 360.00 1533.00 345.00
C 1507.33 345.00 1481.67 345.00 1456.00 345.00 C 1439.11 348.89 1444.92 328.01 1444.00 318.00 C 1445.16 308.37 1438.92 288.22 1455.00 291.00 C 1481.00 291.00 1507.00 291.00 1533.00 291.00
C 1533.00 278.33 1533.00 265.67 1533.00 253.00 C 1533.04 239.13 1511.42 248.94 1502.00 246.00 C 1489.00 246.00 1476.00 246.00 1463.00 246.00 C 1452.63 243.55 1435.91 251.45 1430.08 240.92 C 1429.90 227.95 1430.05 214.97 1430.00 202.00 C 1426.61 188.50 1433.09 177.58 1448.00 182.00 C 1485.54 183.21 1524.36 179.53 1561.07 183.93 C 1594.91 200.20 1582.92 244.37 1585.00 276.00 C 1585.00 314.33 1585.00 352.67 1585.00 391.00 C 1586.05 412.35 1585.99 436.82 1566.75 449.75 C 1544.64 458.81 1518.01 451.78 1494.00 454.00 C 1481.33 454.00 1468.67 454.00 1456.00 454.00 C 1445.44 453.62 1425.66 458.39 1430.00 441.00 C 1430.00 428.33 1430.00 415.67 1430.00 403.00 C 1425.91 385.72 1445.32 390.32 1456.00 390.00 C 1481.67 390.00 1507.33 390.00 1533.00 390.00 Z"/>
</g>
<g fill="#20201F" fill-opacity="0.94" stroke="None"><path d="
M 2.00 129.00 
C 4.97 128.12 4.97 117.65 10.75 114.75 C 27.58 99.34 53.50 108.75 74.02 103.02 C 160.41 99.22 246.64 89.59 333.00 89.00 C 368.31 92.06 359.83 134.58 361.33 160.67 C 362.65 168.29 362.01 176.88 361.67 184.67 C 338.51 187.26 314.03 187.67 290.00 188.00
C 290.00 189.67 290.00 191.33 290.00 193.00
C 315.55 192.40 341.12 191.38 366.22 189.22 C 366.67 163.84 364.90 137.05 365.00 111.00 C 365.60 100.08 366.58 84.15 352.93 82.07 C 237.89 85.98 124.22 95.68 10.00 103.00
C 20.95 92.00 37.84 86.01 51.25 77.25 C 80.64 62.45 108.46 44.61 137.01 29.01 C 151.54 21.94 165.29 5.23 182.22 9.78 C 281.66 48.27 384.62 78.52 486.00 110.00
C 477.23 97.20 457.40 98.30 444.00 91.00 C 352.82 63.62 265.06 33.72 175.00 2.00 C 160.39 5.63 149.61 16.67 136.22 23.22 C 97.41 43.99 59.94 67.61 22.08 89.08 C 3.57 93.78 -1.06 111.37 2.00 129.00 Z"/>
</g>
<g fill="#474740" fill-opacity="1.00" stroke="None"><path d="
M 290.00 193.00 
C 289.33 253.17 291.33 314.65 289.00 374.00
C 312.11 379.94 335.45 387.37 359.02 391.98 C 372.91 396.73 363.03 417.20 366.00 429.00 C 366.00 473.33 366.00 517.67 366.00 562.00 C 366.14 574.23 359.10 584.80 350.00 591.00
C 385.73 575.59 423.86 560.77 460.25 545.25 C 502.90 519.99 483.76 461.07 488.00 418.00 C 487.22 315.36 489.87 211.86 486.00 110.00
C 384.62 78.52 281.66 48.27 182.22 9.78 C 165.29 5.23 151.54 21.94 137.01 29.01 C 108.46 44.61 80.64 62.45 51.25 77.25 C 37.84 86.01 20.95 92.00 10.00 103.00
C 124.22 95.68 237.89 85.98 352.93 82.07 C 366.58 84.15 365.60 100.08 365.00 111.00 C 364.90 137.05 366.67 163.84 366.22 189.22 C 341.12 191.38 315.55 192.40 290.00 193.00 Z"/>
</g>
<g fill="#646058" fill-opacity="1.00" stroke="None"><path d="
M 2.00 129.00 
C 3.33 186.16 -0.48 245.91 2.00 303.00
C 4.31 307.31 2.35 319.68 3.00 327.00 C 3.00 336.00 3.00 345.00 3.00 354.00
C 3.00 354.50 3.00 355.00 3.00 355.00
C 28.98 363.34 55.06 371.60 81.00 380.00
C 138.34 398.09 195.62 417.76 253.00 435.00
C 263.93 438.49 274.75 442.41 286.00 445.00
C 294.63 451.12 287.84 466.23 290.00 476.00 C 290.00 488.00 290.00 500.00 290.00 512.00
C 290.00 514.67 290.00 517.33 290.00 520.00
C 217.21 514.52 144.60 508.30 72.00 502.00
C 72.00 488.33 72.00 474.67 72.00 461.00
C 49.13 459.16 25.91 458.72 3.00 457.00
C 3.72 460.94 1.51 464.10 2.00 468.00
C 2.48 496.78 0.15 528.91 19.00 550.00
C 20.59 551.19 23.83 552.83 22.00 555.00
C 32.82 568.27 50.35 577.10 68.00 579.00 C 143.25 582.53 214.26 597.73 290.00 600.00 C 299.29 599.49 313.05 601.04 319.00 597.00
C 338.94 586.66 357.35 568.32 360.00 545.00 C 360.09 498.27 359.51 451.38 361.00 405.00 C 354.87 395.28 337.77 397.43 327.78 391.22 C 241.70 369.29 157.55 341.25 72.00 318.00
C 72.00 267.00 72.00 216.00 72.00 165.00
C 144.60 163.76 216.11 158.11 289.00 158.00
C 289.00 160.00 289.00 162.00 289.00 164.00
C 289.00 168.00 289.00 172.00 289.00 176.00
C 291.19 179.09 289.43 184.16 290.00 188.00
C 314.03 187.67 338.51 187.26 361.67 184.67 C 362.01 176.88 362.65 168.29 361.33 160.67 C 359.83 134.58 368.31 92.06 333.00 89.00 C 246.64 89.59 160.41 99.22 74.02 103.02 C 53.50 108.75 27.58 99.34 10.75 114.75 C 4.97 117.65 4.97 128.12 2.00 129.00 Z"/>
</g>
<g fill="#1E1E1D" fill-opacity="1.00" stroke="None"><path d="
M 319.00 597.00 
C 329.79 596.62 340.66 593.66 350.00 591.00
C 359.10 584.80 366.14 574.23 366.00 562.00 C 366.00 517.67 366.00 473.33 366.00 429.00 C 363.03 417.20 372.91 396.73 359.02 391.98 C 335.45 387.37 312.11 379.94 289.00 374.00
C 219.41 354.17 150.75 332.36 81.00 313.00
C 79.33 266.40 79.33 216.53 81.00 170.00
C 150.54 168.82 219.47 165.22 289.00 164.00
C 289.00 162.00 289.00 160.00 289.00 158.00
C 216.11 158.11 144.60 163.76 72.00 165.00
C 72.00 216.00 72.00 267.00 72.00 318.00
C 157.55 341.25 241.70 369.29 327.78 391.22 C 337.77 397.43 354.87 395.28 361.00 405.00 C 359.51 451.38 360.09 498.27 360.00 545.00 C 357.35 568.32 338.94 586.66 319.00 597.00 Z"/>
</g>
<g fill="#F38723" fill-opacity="1.00" stroke="None"><path d="
M 81.00 170.00 
C 81.00 184.67 81.00 199.33 81.00 214.00
C 131.94 214.58 182.81 215.44 234.00 215.00
C 240.33 215.00 246.67 215.00 253.00 215.00
C 253.00 248.67 253.00 282.33 253.00 316.00
C 195.53 301.13 138.74 284.14 81.00 269.00
C 81.00 283.67 81.00 298.33 81.00 313.00
C 150.75 332.36 219.41 354.17 289.00 374.00
C 289.00 308.00 289.00 242.00 289.00 176.00
C 289.00 172.00 289.00 168.00 289.00 164.00
C 219.47 165.22 150.54 168.82 81.00 170.00 Z"/>
</g>
<g fill="#4B331D" fill-opacity="1.00" stroke="None"><path d="
M 81.00 313.00 
C 81.00 298.33 81.00 283.67 81.00 269.00
C 81.00 252.00 81.00 235.00 81.00 218.00
C 81.00 216.67 81.00 215.33 81.00 214.00
C 81.00 199.33 81.00 184.67 81.00 170.00
C 79.33 216.53 79.33 266.40 81.00 313.00 Z"/>
</g>
<g fill="#9E6833" fill-opacity="1.00" stroke="None"><path d="
M 289.00 374.00 
C 291.33 314.65 289.33 253.17 290.00 193.00
C 290.00 191.33 290.00 189.67 290.00 188.00
C 289.43 184.16 291.19 179.09 289.00 176.00
C 289.00 242.00 289.00 308.00 289.00 374.00 Z"/>
</g>
<g fill="#565657" fill-opacity="0.98" stroke="None"><path d="
M 550.00 347.00 
C 559.08 342.38 574.49 346.30 586.00 345.00 C 597.85 346.31 613.57 342.36 623.00 347.00
C 631.73 356.26 624.78 372.80 626.99 384.99 C 622.87 397.59 602.03 388.01 591.00 391.00 C 577.33 391.00 563.67 391.00 550.00 391.00 C 539.51 393.33 517.04 384.12 518.00 401.00 C 518.00 415.00 518.00 429.00 518.00 443.00 C 514.62 460.99 537.61 451.82 548.00 454.00 C 575.67 454.00 603.33 454.00 631.00 454.00 C 656.18 459.35 672.72 434.64 674.00 413.00 C 669.74 375.83 684.73 331.63 661.25 300.75 C 643.91 281.30 612.73 293.39 589.00 290.00 C 576.59 291.18 558.56 292.13 564.00 274.00 C 564.87 263.13 558.88 240.96 577.00 245.00 C 604.67 245.00 632.33 245.00 660.00 245.00 C 674.17 243.06 663.86 220.59 667.00 210.00 C 666.50 198.58 671.89 177.10 653.00 182.00 C 639.33 182.00 625.67 182.00 612.00 182.00 C 587.11 185.14 556.49 174.97 535.70 188.70 C 513.69 203.12 518.28 231.69 518.00 255.00 C 518.40 287.71 509.60 338.22 550.00 347.00 Z"/>
</g>
<g fill="#565657" fill-opacity="0.98" stroke="None"><path d="
M 844.00 182.00 
C 794.77 182.69 744.81 180.62 696.03 183.03 C 689.25 191.04 694.81 206.93 693.00 218.00 C 695.52 227.55 687.12 246.03 699.00 249.00 C 711.33 249.00 723.67 249.00 736.00 249.00 C 750.11 248.83 741.74 268.80 744.00 278.00 C 744.00 327.67 744.00 377.33 744.00 427.00 C 745.27 436.22 739.03 455.74 754.00 454.00 C 766.64 453.95 779.28 454.10 791.92 453.92 C 800.63 447.18 793.86 431.40 796.00 421.00 C 796.00 371.33 796.00 321.67 796.00 272.00 C 795.13 261.46 794.59 244.54 810.00 249.00 C 821.86 248.29 834.56 250.44 845.90 247.90 C 852.15 238.84 847.62 225.05 849.00 214.00 C 847.54 203.52 852.80 189.20 844.00 182.00 Z"/>
</g>
<g fill="#565657" fill-opacity="0.99" stroke="None"><path d="
M 1012.00 182.00 
C 975.75 182.15 939.45 181.71 903.22 182.22 C 884.63 185.51 871.78 205.47 872.00 224.00 C 872.00 296.67 872.00 369.33 872.00 442.00 C 867.34 458.53 886.13 453.40 896.00 454.00 C 904.98 451.86 923.75 459.96 924.00 446.00 C 924.46 421.96 923.07 397.41 924.70 373.70 C 932.96 367.57 947.36 372.68 958.00 371.00 C 968.05 373.17 983.69 366.38 990.07 374.93 C 992.23 398.45 990.38 423.05 991.00 447.00 C 992.47 459.98 1010.99 451.64 1020.00 454.00 C 1030.12 454.34 1047.56 456.95 1043.00 441.00 C 1043.00 392.67 1043.00 344.33 1043.00 296.00 C 1039.05 257.45 1058.39 196.99 1012.00 182.00
M 991.00 244.00 
C 991.00 266.33 991.00 288.67 991.00 311.00
C 968.67 311.00 946.33 311.00 924.00 311.00
C 924.00 288.67 924.00 266.33 924.00 244.00
C 946.33 244.00 968.67 244.00 991.00 244.00 Z"/>
</g>
<g fill="#565657" fill-opacity="0.98" stroke="None"><path d="
M 1243.00 414.00 
C 1241.34 394.74 1241.33 372.19 1243.00 353.00
C 1242.19 339.99 1230.55 331.65 1226.00 320.00 C 1227.32 307.10 1239.06 298.23 1242.00 286.00
C 1242.00 284.33 1242.00 282.67 1242.00 281.00
C 1242.00 262.00 1242.00 243.00 1242.00 224.00
C 1242.00 221.67 1242.00 219.33 1242.00 217.00
C 1239.88 194.36 1218.06 177.25 1195.00 182.00 C 1154.97 182.46 1114.41 181.07 1074.70 182.70 C 1067.28 192.05 1072.64 207.93 1071.00 220.00 C 1071.00 287.67 1071.00 355.33 1071.00 423.00 C 1073.14 433.05 1064.51 455.60 1081.00 454.00 C 1121.33 454.00 1161.67 454.00 1202.00 454.00 C 1225.85 458.37 1242.61 435.18 1243.00 414.00
M 1195.00 242.00 
C 1195.00 258.00 1195.00 274.00 1195.00 290.00
C 1169.67 290.00 1144.33 290.00 1119.00 290.00
C 1119.00 274.00 1119.00 258.00 1119.00 242.00
C 1144.33 242.00 1169.67 242.00 1195.00 242.00
M 1195.00 342.00 
C 1195.00 359.67 1195.00 377.33 1195.00 395.00
C 1169.67 395.00 1144.33 395.00 1119.00 395.00
C 1119.00 377.33 1119.00 359.67 1119.00 342.00
C 1144.33 342.00 1169.67 342.00 1195.00 342.00 Z"/>
</g>
<g fill="#575758" fill-opacity="0.99" stroke="None"><path d="
M 1324.00 383.00 
C 1323.99 382.92 1323.00 383.00 1323.00 383.00
C 1320.67 374.64 1322.66 358.35 1322.00 347.00 C 1322.67 294.50 1320.67 240.68 1323.00 189.00
C 1321.09 176.09 1302.30 184.33 1293.00 182.00 C 1281.35 180.62 1265.97 180.86 1271.00 197.00 C 1271.50 282.00 1270.00 367.63 1271.75 452.25 C 1282.26 456.28 1295.45 452.87 1307.00 454.00 C 1331.33 454.00 1355.67 454.00 1380.00 454.00 C 1389.10 451.97 1409.26 460.09 1408.00 445.00 C 1408.00 432.67 1408.00 420.33 1408.00 408.00 C 1409.84 396.76 1408.10 382.39 1393.00 387.00 C 1380.67 387.00 1368.33 387.00 1356.00 387.00 C 1346.01 384.79 1330.11 391.69 1324.00 383.00 Z"/>
</g>
<g fill="#E47F1C" fill-opacity="0.98" stroke="None"><path d="
M 1533.00 390.00 
C 1507.33 390.00 1481.67 390.00 1456.00 390.00 C 1445.32 390.32 1425.91 385.72 1430.00 403.00 C 1430.00 415.67 1430.00 428.33 1430.00 441.00 C 1425.66 458.39 1445.44 453.62 1456.00 454.00 C 1468.67 454.00 1481.33 454.00 1494.00 454.00 C 1518.01 451.78 1544.64 458.81 1566.75 449.75 C 1585.99 436.82 1586.05 412.35 1585.00 391.00 C 1585.00 352.67 1585.00 314.33 1585.00 276.00 C 1582.92 244.37 1594.91 200.20 1561.07 183.93 C 1524.36 179.53 1485.54 183.21 1448.00 182.00 C 1433.09 177.58 1426.61 188.50 1430.00 202.00 C 1430.05 214.97 1429.90 227.95 1430.08 240.92 C 1435.91 251.45 1452.63 243.55 1463.00 246.00 C 1476.00 246.00 1489.00 246.00 1502.00 246.00 C 1511.42 248.94 1533.04 239.13 1533.00 253.00 C 1533.00 265.67 1533.00 278.33 1533.00 291.00
C 1507.00 291.00 1481.00 291.00 1455.00 291.00 C 1438.92 288.22 1445.16 308.37 1444.00 318.00 C 1444.92 328.01 1439.11 348.89 1456.00 345.00 C 1481.67 345.00 1507.33 345.00 1533.00 345.00
C 1533.00 360.00 1533.00 375.00 1533.00 390.00 Z"/>
</g>
<g fill="#585858" fill-opacity="0.27" stroke="None"><path d="
M 1323.00 383.00 
C 1323.00 318.67 1323.00 254.33 1323.00 190.00
C 1323.00 190.00 1322.96 189.50 1323.00 189.00
C 1320.67 240.68 1322.67 294.50 1322.00 347.00 C 1322.66 358.35 1320.67 374.64 1323.00 383.00 Z"/>
</g>
<g fill="#808080" fill-opacity="0.01" stroke="None"><path d="
M 1323.00 383.00 
C 1323.00 383.00 1323.99 382.92 1324.00 383.00
C 1323.34 318.82 1325.33 253.43 1323.00 190.00
C 1323.00 254.33 1323.00 318.67 1323.00 383.00 Z"/>
</g>
<g fill="#8E4C21" fill-opacity="1.00" stroke="None"><path d="
M 81.00 218.00 
C 138.14 218.12 195.13 218.79 252.00 220.00
C 252.25 211.37 238.45 219.03 234.00 215.00
C 182.81 215.44 131.94 214.58 81.00 214.00
C 81.00 215.33 81.00 216.67 81.00 218.00 Z"/>
</g>
<g fill="#B96429" fill-opacity="1.00" stroke="None"><path d="
M 81.00 218.00 
C 81.00 235.00 81.00 252.00 81.00 269.00
C 138.74 284.14 195.53 301.13 253.00 316.00
C 253.00 282.33 253.00 248.67 253.00 215.00
C 246.67 215.00 240.33 215.00 234.00 215.00
C 238.45 219.03 252.25 211.37 252.00 220.00
C 195.13 218.79 138.14 218.12 81.00 218.00 Z"/>
</g>
<g fill="#7A7A7A" fill-opacity="0.01" stroke="None"><path d="
M 1242.00 224.00 
C 1243.66 241.93 1243.67 263.14 1242.00 281.00
C 1242.00 282.67 1242.00 284.33 1242.00 286.00
C 1245.40 264.62 1245.12 238.46 1242.00 217.00
C 1242.00 219.33 1242.00 221.67 1242.00 224.00 Z"/>
</g>
<g fill="#5A5A5A" fill-opacity="0.27" stroke="None"><path d="
M 1242.00 281.00 
C 1243.67 263.14 1243.66 241.93 1242.00 224.00
C 1242.00 243.00 1242.00 262.00 1242.00 281.00 Z"/>
</g>
<g fill="#000000" fill-opacity="0.00" stroke="None"><path d="
M 1195.00 242.00 
C 1169.67 242.00 1144.33 242.00 1119.00 242.00
C 1119.00 258.00 1119.00 274.00 1119.00 290.00
C 1144.33 290.00 1169.67 290.00 1195.00 290.00
C 1195.00 274.00 1195.00 258.00 1195.00 242.00 Z"/>
</g>
<g fill="#000000" fill-opacity="0.00" stroke="None"><path d="
M 991.00 244.00 
C 968.67 244.00 946.33 244.00 924.00 244.00
C 924.00 266.33 924.00 288.67 924.00 311.00
C 946.33 311.00 968.67 311.00 991.00 311.00
C 991.00 288.67 991.00 266.33 991.00 244.00 Z"/>
</g>
<g fill="#635F57" fill-opacity="0.25" stroke="None"><path d="
M 2.00 303.00 
C 2.00 319.67 2.00 336.33 2.00 353.00
C 2.00 353.50 2.00 354.00 2.00 354.00
C 2.25 354.25 3.00 354.00 3.00 354.00
C 3.00 345.00 3.00 336.00 3.00 327.00 C 2.35 319.68 4.31 307.31 2.00 303.00 Z"/>
</g>
<g fill="#000000" fill-opacity="0.00" stroke="None"><path d="
M 1195.00 342.00 
C 1169.67 342.00 1144.33 342.00 1119.00 342.00
C 1119.00 359.67 1119.00 377.33 1119.00 395.00
C 1144.33 395.00 1169.67 395.00 1195.00 395.00
C 1195.00 377.33 1195.00 359.67 1195.00 342.00 Z"/>
</g>
<g fill="#585858" fill-opacity="0.50" stroke="None"><path d="
M 550.00 347.00 
C 574.33 347.00 598.67 347.00 623.00 347.00
C 613.57 342.36 597.85 346.31 586.00 345.00 C 574.49 346.30 559.08 342.38 550.00 347.00 Z"/>
</g>
<g fill="#404040" fill-opacity="0.11" stroke="None"><path d="
M 2.00 411.00 
C 2.00 392.00 2.00 373.00 2.00 354.00
C 2.00 354.00 2.00 353.50 2.00 353.00
C 0.33 371.19 0.34 392.74 2.00 411.00 Z"/>
</g>
<g fill="#59595A" fill-opacity="0.26" stroke="None"><path d="
M 1243.00 414.00 
C 1243.00 414.00 1243.00 413.50 1243.00 413.00
C 1243.00 393.33 1243.00 373.67 1243.00 354.00
C 1243.00 354.00 1243.01 353.50 1243.00 353.00
C 1241.33 372.19 1241.34 394.74 1243.00 414.00 Z"/>
</g>
<g fill="#43433E" fill-opacity="0.58" stroke="None"><path d="
M 2.00 411.00 
C 2.00 410.96 3.00 411.00 3.00 411.00
C 3.00 392.33 3.00 373.67 3.00 355.00
C 3.00 355.00 3.00 354.50 3.00 354.00
C 3.00 354.00 2.25 354.25 2.00 354.00
C 2.00 373.00 2.00 392.00 2.00 411.00 Z"/>
</g>
<g fill="#808080" fill-opacity="0.01" stroke="None"><path d="
M 1243.00 413.00 
C 1244.67 394.47 1244.67 372.60 1243.00 354.00
C 1243.00 373.67 1243.00 393.33 1243.00 413.00 Z"/>
</g>
<g fill="#47473F" fill-opacity="1.00" stroke="None"><path d="
M 3.00 411.00 
C 3.00 424.67 3.00 438.33 3.00 452.00
C 29.04 453.50 55.17 454.63 81.00 457.00
C 81.00 431.33 81.00 405.67 81.00 380.00
C 55.06 371.60 28.98 363.34 3.00 355.00
C 3.00 373.67 3.00 392.33 3.00 411.00 Z"/>
</g>
<g fill="#B8632A" fill-opacity="1.00" stroke="None"><path d="
M 81.00 457.00 
C 81.00 457.50 81.00 458.00 81.00 458.00
C 138.27 460.24 194.93 464.90 252.00 468.00
C 252.00 469.67 252.00 471.33 252.00 473.00
C 253.30 461.76 250.23 446.54 253.00 435.00
C 195.62 417.76 138.34 398.09 81.00 380.00
C 81.00 405.67 81.00 431.33 81.00 457.00 Z"/>
</g>
<g fill="#43433C" fill-opacity="0.25" stroke="None"><path d="
M 2.00 457.00 
C 2.00 457.02 3.00 457.00 3.00 457.00
C 3.00 455.33 3.00 453.67 3.00 452.00
C 3.00 438.33 3.00 424.67 3.00 411.00
C 3.00 411.00 2.00 410.96 2.00 411.00
C 2.00 426.33 2.00 441.67 2.00 457.00 Z"/>
</g>
<g fill="#F28723" fill-opacity="1.00" stroke="None"><path d="
M 252.00 473.00 
C 194.88 469.84 138.28 464.57 81.00 462.00
C 81.00 473.67 81.00 485.33 81.00 497.00
C 83.33 497.00 85.67 497.00 88.00 497.00
C 96.76 497.29 106.19 497.50 114.00 500.00
C 172.65 502.73 230.33 509.32 289.00 512.00
C 289.00 500.33 289.00 488.67 289.00 477.00 C 287.38 466.61 292.47 453.00 286.00 445.00
C 274.75 442.41 263.93 438.49 253.00 435.00
C 250.23 446.54 253.30 461.76 252.00 473.00 Z"/>
</g>
<g fill="#AD753F" fill-opacity="1.00" stroke="None"><path d="
M 289.00 512.00 
C 289.50 512.00 290.00 512.00 290.00 512.00
C 290.00 500.00 290.00 488.00 290.00 476.00 C 287.84 466.23 294.63 451.12 286.00 445.00
C 292.47 453.00 287.38 466.61 289.00 477.00 C 289.00 488.67 289.00 500.33 289.00 512.00 Z"/>
</g>
<g fill="#23221E" fill-opacity="1.00" stroke="None"><path d="
M 3.00 457.00 
C 25.91 458.72 49.13 459.16 72.00 461.00
C 72.00 474.67 72.00 488.33 72.00 502.00
C 144.60 508.30 217.21 514.52 290.00 520.00
C 290.00 517.33 290.00 514.67 290.00 512.00
C 290.00 512.00 289.50 512.00 289.00 512.00
C 230.33 509.32 172.65 502.73 114.00 500.00
C 105.41 499.06 95.97 498.90 88.00 497.00
C 85.67 497.00 83.33 497.00 81.00 497.00
C 81.00 485.33 81.00 473.67 81.00 462.00
C 81.00 460.67 81.00 459.33 81.00 458.00
C 81.00 458.00 81.00 457.50 81.00 457.00
C 55.17 454.63 29.04 453.50 3.00 452.00
C 3.00 453.67 3.00 455.33 3.00 457.00 Z"/>
</g>
<g fill="#676158" fill-opacity="0.18" stroke="None"><path d="
M 2.00 468.00 
C 1.51 464.10 3.72 460.94 3.00 457.00
C 3.00 457.00 2.00 457.02 2.00 457.00
C 3.24 460.78 -0.70 465.01 2.00 468.00 Z"/>
</g>
<g fill="#914E21" fill-opacity="1.00" stroke="None"><path d="
M 81.00 462.00 
C 138.28 464.57 194.88 469.84 252.00 473.00
C 252.00 471.33 252.00 469.67 252.00 468.00
C 194.93 464.90 138.27 460.24 81.00 458.00
C 81.00 459.33 81.00 460.67 81.00 462.00 Z"/>
</g>
<g fill="#935821" fill-opacity="1.00" stroke="None"><path d="
M 114.00 500.00 
C 106.19 497.50 96.76 497.29 88.00 497.00
C 95.97 498.90 105.41 499.06 114.00 500.00 Z"/>
</g>
<g fill="#676159" fill-opacity="0.58" stroke="None"><path d="
M 22.00 555.00 
C 23.83 552.83 20.59 551.19 19.00 550.00
C 18.52 552.28 20.05 554.10 22.00 555.00 Z"/>
</g>
</svg>